<?xml version="1.0" encoding="utf-8"?>
<!-- Generator: Adobe Illustrator 22.0.1, SVG Export Plug-In . SVG Version: 6.00 Build 0)  -->
<svg version="1.1" id="Layer_1" xmlns="http://www.w3.org/2000/svg" xmlns:xlink="http://www.w3.org/1999/xlink" x="0px" y="0px"
	 viewBox="0 0 367.4 416.2" style="enable-background:new 0 0 367.4 416.2;" xml:space="preserve">
<style type="text/css">
	.st0{opacity:0.42;fill:#1A8E99;stroke:#1A8E99;enable-background:new    ;}
	.st1{fill:#00384D;}
	.st2{display:none;opacity:0.42;fill:#1A8E99;stroke:#1A8E99;enable-background:new    ;}
</style>
<path class="st0" d="M366.9,299.2V117c0-9.1-4.8-17.5-12.7-22L196.4,3.9c-7.9-4.5-17.6-4.5-25.4,0L13.2,95
	c-7.9,4.5-12.7,12.9-12.7,22v182.2c0,9.1,4.8,17.5,12.7,22L171,412.3c7.9,4.5,17.6,4.5,25.4,0l157.8-91.1
	C362.1,316.7,366.9,308.3,366.9,299.2z"/>
<path class="st1" d="M321,181.1c0-0.1,0-0.1,0-0.2c0-0.2-0.1-0.4-0.1-0.6l0,0c-0.1-0.2-0.1-0.4-0.2-0.6c0-0.1-0.1-0.1-0.1-0.2
	c-0.1-0.2-0.2-0.4-0.3-0.5c0,0,0,0,0-0.1c-0.1-0.2-0.3-0.3-0.5-0.5l-0.1-0.1c-0.2-0.1-0.4-0.3-0.6-0.4l-42.7-24.6V104
	c0-0.2,0-0.5-0.1-0.7c0-0.1,0-0.1,0-0.2c0-0.2-0.1-0.4-0.2-0.6c0,0,0,0,0-0.1c-0.1-0.2-0.2-0.4-0.3-0.5c0-0.1-0.1-0.1-0.1-0.1
	c-0.1-0.2-0.3-0.4-0.4-0.5l0,0c-0.2-0.1-0.3-0.3-0.5-0.4c-0.1,0-0.1-0.1-0.2-0.1l-0.1-0.1l-44.7-25.9c-1.2-0.7-2.7-0.7-3.9,0
	l-42.7,24.6l-42.6-24.6c-1.2-0.7-2.7-0.7-3.9,0l-44.6,25.8c-0.1,0-0.1,0.1-0.1,0.1c-0.1,0-0.1,0.1-0.2,0.1c-0.2,0.1-0.3,0.3-0.5,0.4
	l0,0c-0.2,0.2-0.3,0.3-0.4,0.5l-0.1,0.1c-0.1,0.2-0.2,0.3-0.3,0.5c0,0,0,0,0,0.1c-0.1,0.2-0.1,0.4-0.2,0.6c0,0.1,0,0.1,0,0.2
	c0,0.2-0.1,0.5-0.1,0.7v49.3l-42.8,24.7c-0.2,0.1-0.4,0.3-0.6,0.4l-0.1,0.1c-0.2,0.2-0.3,0.3-0.5,0.5c0,0,0,0,0,0.1
	c-0.1,0.2-0.2,0.3-0.3,0.5c0,0.1-0.1,0.1-0.1,0.2c-0.1,0.2-0.2,0.4-0.2,0.6l0,0c-0.1,0.2-0.1,0.4-0.1,0.6c0,0.1,0,0.1,0,0.2
	c0,0.1,0,0.1,0,0.2v51.5c0,1.4,0.7,2.7,1.9,3.4l42.7,24.6v49.3c0,1.4,0.7,2.7,1.9,3.4l44.6,25.8l0,0c0.1,0.1,0.2,0.1,0.3,0.2
	c0,0,0.1,0,0.1,0.1c0.1,0,0.2,0.1,0.3,0.1c0.1,0,0.1,0,0.2,0.1c0.1,0,0.2,0,0.3,0.1c0.1,0,0.1,0,0.2,0c0.2,0,0.3,0,0.5,0
	c0.5,0,1-0.1,1.5-0.3c0.2-0.1,0.3-0.1,0.5-0.2l42.7-24.6l42.7,24.6c0.2,0.1,0.3,0.2,0.5,0.2c0.5,0.2,1,0.3,1.5,0.3
	c0.2,0,0.3,0,0.5,0c0.1,0,0.2,0,0.2,0c0.1,0,0.2,0,0.3-0.1c0.1,0,0.1,0,0.2-0.1c0.1,0,0.2-0.1,0.3-0.1s0.1,0,0.1-0.1
	c0.1,0,0.2-0.1,0.3-0.2l0,0l44.6-25.8c1.2-0.7,1.9-2,1.9-3.4v-49.3l42.7-24.6c1.2-0.7,1.9-2,1.9-3.4v-51.5
	C321,181.2,321,181.1,321,181.1z M185.2,306.6c0,0-0.1,0-0.1-0.1c-0.1-0.1-0.2-0.1-0.4-0.2c-0.1,0-0.2-0.1-0.3-0.1s-0.2-0.1-0.4-0.1
	c-0.1,0-0.3-0.1-0.4-0.1c-0.1,0-0.2,0-0.4,0c-0.1,0-0.2,0-0.4,0c-0.1,0-0.3,0-0.4,0.1c-0.1,0-0.2,0-0.4,0.1c-0.1,0-0.2,0.1-0.3,0.1
	c-0.1,0.1-0.2,0.1-0.4,0.2c0,0-0.1,0-0.1,0.1L142.5,329v-42.5l40.7-23.5l40.7,23.5V329L185.2,306.6z M96,158.8L96,158.8
	c0.2-0.2,0.3-0.3,0.4-0.3c0.1-0.1,0.2-0.1,0.3-0.2c0.1-0.1,0.2-0.2,0.3-0.3s0.2-0.2,0.2-0.3c0.1-0.1,0.1-0.2,0.2-0.3
	c0.1-0.1,0.1-0.2,0.2-0.3s0.1-0.2,0.1-0.4c0-0.1,0.1-0.2,0.1-0.4c0-0.1,0-0.2,0.1-0.4c0-0.1,0-0.3,0-0.4v-0.1v-44.7l36.8,21.3v47
	L94,202.5l-36.8-21.3L96,158.8z M183.2,108.5l40.7,23.5v42.5l-38.8-22.4c0,0-0.1,0-0.1-0.1c-0.1-0.1-0.2-0.1-0.4-0.2
	c-0.1,0-0.2-0.1-0.3-0.1s-0.2-0.1-0.4-0.1c-0.1,0-0.2-0.1-0.4-0.1c-0.1,0-0.2,0-0.4,0c-0.1,0-0.2,0-0.4,0c-0.1,0-0.3,0-0.4,0.1
	c-0.1,0-0.2,0-0.4,0.1c-0.1,0-0.2,0.1-0.3,0.1c-0.1,0.1-0.3,0.1-0.4,0.2c0,0-0.1,0-0.1,0.1l-38.6,22.4V132L183.2,108.5z M183.2,254
	l-40.7-23.5v-47l40.7-23.5l40.7,23.5v47L183.2,254z M97.9,209.2l36.8-21.3v44.8v0.1c0,0.1,0,0.3,0,0.4c0,0.1,0,0.2,0.1,0.4
	c0,0.1,0.1,0.2,0.1,0.4c0,0.1,0.1,0.2,0.1,0.4c0.1,0.1,0.1,0.2,0.2,0.3c0.1,0.1,0.1,0.2,0.2,0.3c0.1,0.1,0.2,0.2,0.2,0.3
	c0.1,0.1,0.2,0.2,0.3,0.3c0.1,0.1,0.2,0.2,0.3,0.2c0.1,0.1,0.2,0.2,0.3,0.2l0.1,0.1l38.8,22.4l-36.8,21.3l-40.7-23.5L97.9,209.2
	L97.9,209.2z M227.9,279.8l-36.8-21.3l38.8-22.4l0.1-0.1c0.1-0.1,0.2-0.2,0.3-0.2c0.1-0.1,0.2-0.1,0.3-0.2c0.1-0.1,0.2-0.2,0.3-0.3
	s0.2-0.2,0.2-0.3c0.1-0.1,0.1-0.2,0.2-0.3c0.1-0.1,0.1-0.2,0.2-0.3c0.1-0.1,0.1-0.2,0.1-0.4c0-0.1,0.1-0.2,0.1-0.4
	c0-0.1,0-0.2,0.1-0.4c0-0.1,0-0.3,0-0.4v-0.1v-44.8l36.8,21.3v47L227.9,279.8z M272.5,202.5L231.8,179v-47l36.8-21.3v44.8v0.1
	c0,0.1,0,0.3,0,0.4c0,0.1,0,0.2,0.1,0.4c0,0.1,0.1,0.2,0.1,0.4c0,0.1,0.1,0.2,0.1,0.4c0.1,0.1,0.1,0.2,0.2,0.3
	c0.1,0.1,0.1,0.2,0.2,0.3c0.1,0.1,0.2,0.2,0.2,0.3c0.1,0.1,0.2,0.2,0.3,0.3c0.1,0.1,0.2,0.2,0.3,0.2c0.1,0.1,0.2,0.2,0.3,0.2
	l0.1,0.1l38.8,22.4L272.5,202.5z M227.9,82.7l36.8,21.3l-36.8,21.3L191.1,104L227.9,82.7z M138.6,82.7l36.8,21.3l-36.8,21.2
	L101.8,104L138.6,82.7z M53.3,188l36.8,21.3v42.5l-36.8-21.3V188z M134.7,329l-36.8-21.3v-42.5l36.8,21.3V329z M268.6,307.8
	l-36.8,21.3v-42.5l36.8-21.3V307.8z M313.2,230.5l-36.8,21.3v-42.5l36.8-21.3V230.5z"/>
<circle id="Circle" class="st2" cx="183" cy="206.8" r="189.2"/>
</svg>
