<svg version="1.1" viewBox="0.0 0.0 615.0 189.0" fill="none" stroke="none" stroke-linecap="square" stroke-miterlimit="10" xmlns:xlink="http://www.w3.org/1999/xlink" xmlns="http://www.w3.org/2000/svg"><clipPath id="p.0"><path d="m0 0l615.0 0l0 189.0l-615.0 0l0 -189.0z" clip-rule="nonzero"/></clipPath><g clip-path="url(#p.0)"><path fill="#ffffff" d="m0 0l615.0 0l0 189.0l-615.0 0z" fill-rule="evenodd"/><path fill="#cfe2f3" d="m73.75433 11.235537l502.83643 0l0 137.32208l-502.83643 0z" fill-rule="evenodd"/><path stroke="#b7b7b7" stroke-width="1.0" stroke-linejoin="round" stroke-linecap="butt" d="m73.75433 11.235537l502.83643 0l0 137.32208l-502.83643 0z" fill-rule="evenodd"/><path fill="#9fc5e8" d="m404.96173 56.37721l135.00989 0l0 60.323513l-135.00989 0z" fill-rule="evenodd"/><path stroke="#666666" stroke-width="1.0" stroke-linejoin="round" stroke-linecap="butt" d="m404.96173 56.37721l135.00989 0l0 60.323513l-135.00989 0z" fill-rule="evenodd"/><path fill="#000000" d="m452.72742 83.33897l-2.78125 -6.90625l1.90625 0l1.3125 3.515625l0.375 1.1875q0.140625 -0.453125 0.1875 -0.59375q0.09375 -0.296875 0.1875 -0.59375l1.328125 -3.515625l1.875 0l-2.75 6.90625l-1.640625 0zm9.506226 -2.203125l1.828125 0.3125q-0.34375 1.0 -1.109375 1.53125q-0.765625 0.515625 -1.890625 0.515625q-1.8125 0 -2.671875 -1.171875q-0.6875 -0.953125 -0.6875 -2.390625q0 -1.71875 0.890625 -2.6875q0.90625 -0.96875 2.28125 -0.96875q1.546875 0 2.4375 1.015625q0.890625 1.015625 0.84375 3.125l-4.578125 0q0.015625 0.8125 0.4375 1.265625q0.421875 0.453125 1.0625 0.453125q0.421875 0 0.71875 -0.234375q0.296875 -0.234375 0.4375 -0.765625zm0.109375 -1.84375q-0.015625 -0.796875 -0.40625 -1.203125q-0.390625 -0.421875 -0.953125 -0.421875q-0.59375 0 -0.984375 0.4375q-0.390625 0.4375 -0.390625 1.1875l2.734375 0zm5.1312256 -5.5l0 3.515625q0.875 -1.03125 2.109375 -1.03125q0.640625 0 1.140625 0.234375q0.515625 0.234375 0.765625 0.59375q0.25 0.359375 0.34375 0.8125q0.109375 0.4375 0.109375 1.375l0 4.046875l-1.828125 0l0 -3.65625q0 -1.078125 -0.109375 -1.375q-0.109375 -0.296875 -0.375 -0.46875q-0.265625 -0.171875 -0.65625 -0.171875q-0.453125 0 -0.8125 0.234375q-0.359375 0.21875 -0.53125 0.671875q-0.15625 0.4375 -0.15625 1.296875l0 3.46875l-1.828125 0l0 -9.546875l1.828125 0zm6.3132324 1.703125l0 -1.703125l1.828125 0l0 1.703125l-1.828125 0zm0 7.84375l0 -6.90625l1.828125 0l0 6.90625l-1.828125 0zm9.734253 -4.875l-1.796875 0.328125q-0.09375 -0.53125 -0.421875 -0.796875q-0.328125 -0.28125 -0.828125 -0.28125q-0.6875 0 -1.09375 0.46875q-0.40625 0.46875 -0.40625 1.578125q0 1.234375 0.40625 1.75q0.421875 0.5 1.109375 0.5q0.53125 0 0.859375 -0.296875q0.328125 -0.296875 0.46875 -1.03125l1.796875 0.3125q-0.28125 1.234375 -1.078125 1.875q-0.796875 0.625 -2.125 0.625q-1.515625 0 -2.421875 -0.953125q-0.90625 -0.953125 -0.90625 -2.65625q0 -1.703125 0.90625 -2.65625q0.90625 -0.953125 2.453125 -0.953125q1.265625 0 2.0 0.546875q0.75 0.53125 1.078125 1.640625zm1.3812256 4.875l0 -9.546875l1.828125 0l0 9.546875l-1.828125 0zm7.7029724 -2.203125l1.828125 0.3125q-0.34375 1.0 -1.109375 1.53125q-0.765625 0.515625 -1.890625 0.515625q-1.8125 0 -2.671875 -1.171875q-0.6875 -0.953125 -0.6875 -2.390625q0 -1.71875 0.890625 -2.6875q0.90625 -0.96875 2.28125 -0.96875q1.546875 0 2.4375 1.015625q0.890625 1.015625 0.84375 3.125l-4.578125 0q0.015625 0.8125 0.4375 1.265625q0.421875 0.453125 1.0625 0.453125q0.421875 0 0.71875 -0.234375q0.296875 -0.234375 0.4375 -0.765625zm0.109375 -1.84375q-0.015625 -0.796875 -0.40625 -1.203125q-0.390625 -0.421875 -0.953125 -0.421875q-0.59375 0 -0.984375 0.4375q-0.390625 0.4375 -0.390625 1.1875l2.734375 0z" fill-rule="nonzero"/><path fill="#000000" d="m450.19485 94.46397l-1.796875 0.328125q-0.09375 -0.53125 -0.421875 -0.796875q-0.328125 -0.28125 -0.828125 -0.28125q-0.6875 0 -1.09375 0.46875q-0.40625 0.46875 -0.40625 1.578125q0 1.234375 0.40625 1.75q0.421875 0.5 1.109375 0.5q0.53125 0 0.859375 -0.296875q0.328125 -0.296875 0.46875 -1.03125l1.796875 0.3125q-0.28125 1.234375 -1.078125 1.875q-0.796875 0.625 -2.125 0.625q-1.515625 0 -2.421875 -0.953125q-0.90625 -0.953125 -0.90625 -2.65625q0 -1.703125 0.90625 -2.65625q0.90625 -0.953125 2.453125 -0.953125q1.265625 0 2.0 0.546875q0.75 0.53125 1.078125 1.640625zm1.2406006 -2.03125l1.6875 0l0 0.9375q0.90625 -1.09375 2.15625 -1.09375q0.671875 0 1.15625 0.28125q0.484375 0.265625 0.796875 0.8125q0.453125 -0.546875 0.984375 -0.8125q0.53125 -0.28125 1.125 -0.28125q0.765625 0 1.28125 0.3125q0.53125 0.296875 0.796875 0.90625q0.1875 0.4375 0.1875 1.421875l0 4.421875l-1.828125 0l0 -3.953125q0 -1.03125 -0.1875 -1.328125q-0.25 -0.390625 -0.78125 -0.390625q-0.390625 0 -0.734375 0.234375q-0.328125 0.234375 -0.484375 0.6875q-0.140625 0.453125 -0.140625 1.4375l0 3.3125l-1.828125 0l0 -3.78125q0 -1.015625 -0.109375 -1.296875q-0.09375 -0.296875 -0.296875 -0.4375q-0.203125 -0.15625 -0.546875 -0.15625q-0.421875 0 -0.765625 0.234375q-0.34375 0.21875 -0.484375 0.65625q-0.140625 0.421875 -0.140625 1.421875l0 3.359375l-1.84375 0l0 -6.90625zm18.335236 6.90625l-1.703125 0l0 -1.015625q-0.421875 0.59375 -1.0 0.890625q-0.578125 0.28125 -1.15625 0.28125q-1.1875 0 -2.046875 -0.953125q-0.84375 -0.96875 -0.84375 -2.6875q0 -1.75 0.828125 -2.65625q0.828125 -0.921875 2.09375 -0.921875q1.15625 0 2.0 0.953125l0 -3.4375l1.828125 0l0 9.546875zm-4.875 -3.609375q0 1.109375 0.296875 1.609375q0.4375 0.71875 1.234375 0.71875q0.640625 0 1.078125 -0.53125q0.4375 -0.546875 0.4375 -1.609375q0 -1.203125 -0.4375 -1.71875q-0.421875 -0.53125 -1.09375 -0.53125q-0.640625 0 -1.078125 0.515625q-0.4375 0.515625 -0.4375 1.546875zm10.203705 4.0625l2.09375 0.25q0.046875 0.375 0.25 0.5q0.25 0.203125 0.8125 0.203125q0.71875 0 1.078125 -0.21875q0.234375 -0.140625 0.359375 -0.453125q0.078125 -0.234375 0.078125 -0.84375l0 -1.015625q-0.8125 1.125 -2.0625 1.125q-1.390625 0 -2.203125 -1.171875q-0.640625 -0.9375 -0.640625 -2.328125q0 -1.734375 0.828125 -2.640625q0.84375 -0.921875 2.09375 -0.921875q1.28125 0 2.109375 1.125l0 -0.96875l1.703125 0l0 6.203125q0 1.21875 -0.203125 1.8125q-0.1875 0.609375 -0.5625 0.953125q-0.359375 0.359375 -0.96875 0.546875q-0.609375 0.203125 -1.53125 0.203125q-1.765625 0 -2.5 -0.609375q-0.734375 -0.609375 -0.734375 -1.53125q0 -0.09375 0 -0.21875zm1.640625 -4.046875q0 1.09375 0.421875 1.609375q0.4375 0.5 1.046875 0.5q0.671875 0 1.140625 -0.515625q0.46875 -0.53125 0.46875 -1.546875q0 -1.078125 -0.453125 -1.59375q-0.4375 -0.53125 -1.109375 -0.53125q-0.65625 0 -1.09375 0.515625q-0.421875 0.515625 -0.421875 1.5625zm8.047607 -1.203125l-1.671875 -0.3125q0.28125 -1.0 0.96875 -1.46875q0.6875 -0.484375 2.03125 -0.484375q1.21875 0 1.8125 0.296875q0.609375 0.28125 0.84375 0.734375q0.25 0.4375 0.25 1.625l-0.015625 2.140625q0 0.90625 0.078125 1.34375q0.09375 0.421875 0.34375 0.921875l-1.8125 0q-0.078125 -0.1875 -0.171875 -0.546875q-0.046875 -0.15625 -0.078125 -0.203125q-0.46875 0.453125 -1.0 0.6875q-0.53125 0.21875 -1.140625 0.21875q-1.0625 0 -1.6875 -0.578125q-0.609375 -0.578125 -0.609375 -1.46875q0 -0.578125 0.28125 -1.03125q0.28125 -0.46875 0.78125 -0.703125q0.515625 -0.25 1.46875 -0.4375q1.28125 -0.234375 1.765625 -0.453125l0 -0.171875q0 -0.53125 -0.265625 -0.75q-0.25 -0.234375 -0.96875 -0.234375q-0.484375 0 -0.765625 0.203125q-0.265625 0.1875 -0.4375 0.671875zm2.4375 1.484375q-0.34375 0.109375 -1.109375 0.28125q-0.765625 0.15625 -1.0 0.3125q-0.359375 0.25 -0.359375 0.640625q0 0.390625 0.28125 0.671875q0.296875 0.28125 0.734375 0.28125q0.5 0 0.953125 -0.328125q0.328125 -0.25 0.4375 -0.609375q0.0625 -0.234375 0.0625 -0.890625l0 -0.359375zm6.7718506 -3.59375l0 1.453125l-1.25 0l0 2.78125q0 0.84375 0.03125 0.984375q0.046875 0.140625 0.171875 0.234375q0.125 0.09375 0.3125 0.09375q0.25 0 0.734375 -0.171875l0.15625 1.421875q-0.640625 0.265625 -1.453125 0.265625q-0.484375 0 -0.890625 -0.15625q-0.390625 -0.171875 -0.578125 -0.4375q-0.1875 -0.265625 -0.265625 -0.71875q-0.046875 -0.3125 -0.046875 -1.28125l0 -3.015625l-0.84375 0l0 -1.453125l0.84375 0l0 -1.375l1.828125 -1.078125l0 2.453125l1.25 0zm5.26651 4.703125l1.828125 0.3125q-0.34375 1.0 -1.109375 1.53125q-0.765625 0.515625 -1.890625 0.515625q-1.8125 0 -2.671875 -1.171875q-0.6875 -0.953125 -0.6875 -2.390625q0 -1.71875 0.890625 -2.6875q0.90625 -0.96875 2.28125 -0.96875q1.546875 0 2.4375 1.015625q0.890625 1.015625 0.84375 3.125l-4.578125 0q0.015625 0.8125 0.4375 1.265625q0.421875 0.453125 1.0625 0.453125q0.421875 0 0.71875 -0.234375q0.296875 -0.234375 0.4375 -0.765625zm0.109375 -1.84375q-0.015625 -0.796875 -0.40625 -1.203125q-0.390625 -0.421875 -0.953125 -0.421875q-0.59375 0 -0.984375 0.4375q-0.390625 0.4375 -0.390625 1.1875l2.734375 0z" fill-rule="nonzero"/><path fill="#000000" fill-opacity="0.0" d="m3.4376907 43.40963l80.43684 0l0 33.350105l-80.43684 0z" fill-rule="evenodd"/><path fill="#000000" d="m10.312691 56.08963l0 -4.765625l-1.703125 0l0 -0.96875l4.546875 0l0 0.96875l-1.6875 0l0 4.765625l-1.15625 0zm4.1953125 0l-1.09375 0l0 -4.15625l1.015625 0l0 0.59375q0.265625 -0.421875 0.46875 -0.546875q0.21875 -0.140625 0.484375 -0.140625q0.375 0 0.71875 0.21875l-0.34375 0.953125q-0.28125 -0.1875 -0.515625 -0.1875q-0.234375 0 -0.390625 0.140625q-0.15625 0.125 -0.25 0.453125q-0.09375 0.328125 -0.09375 1.390625l0 1.28125zm2.8789062 -2.890625l-0.984375 -0.171875q0.15625 -0.609375 0.5625 -0.890625q0.421875 -0.296875 1.234375 -0.296875q0.734375 0 1.09375 0.1875q0.359375 0.171875 0.5 0.4375q0.140625 0.265625 0.140625 0.984375l0 1.28125q0 0.546875 0.046875 0.8125q0.046875 0.25 0.203125 0.546875l-1.09375 0q-0.046875 -0.109375 -0.109375 -0.328125q-0.015625 -0.09375 -0.03125 -0.125q-0.28125 0.265625 -0.609375 0.40625q-0.3125 0.140625 -0.671875 0.140625q-0.640625 0 -1.015625 -0.34375q-0.375 -0.359375 -0.375 -0.890625q0 -0.34375 0.171875 -0.609375q0.171875 -0.28125 0.46875 -0.421875q0.3125 -0.15625 0.875 -0.265625q0.765625 -0.140625 1.0625 -0.265625l0 -0.109375q0 -0.328125 -0.15625 -0.453125q-0.15625 -0.140625 -0.578125 -0.140625q-0.296875 0 -0.46875 0.125q-0.15625 0.109375 -0.265625 0.390625zm1.46875 0.890625q-0.203125 0.078125 -0.671875 0.171875q-0.453125 0.09375 -0.59375 0.1875q-0.203125 0.15625 -0.203125 0.390625q0 0.234375 0.171875 0.40625q0.171875 0.15625 0.4375 0.15625q0.296875 0 0.5625 -0.1875q0.203125 -0.15625 0.265625 -0.359375q0.03125 -0.140625 0.03125 -0.546875l0 -0.21875zm2.1367188 -2.71875l0 -1.015625l1.109375 0l0 1.015625l-1.109375 0zm1.109375 0.5625l0 4.03125q0 0.796875 -0.109375 1.109375q-0.109375 0.328125 -0.40625 0.515625q-0.28125 0.1875 -0.75 0.1875q-0.15625 0 -0.359375 -0.03125q-0.1875 -0.03125 -0.40625 -0.09375l0.203125 -0.9375q0.078125 0.015625 0.15625 0.03125q0.0625 0.015625 0.109375 0.015625q0.171875 0 0.28125 -0.078125q0.109375 -0.078125 0.140625 -0.1875q0.03125 -0.09375 0.03125 -0.59375l0 -3.96875l1.109375 0zm3.5507812 2.828125l1.09375 0.1875q-0.21875 0.609375 -0.671875 0.921875q-0.453125 0.3125 -1.140625 0.3125q-1.078125 0 -1.59375 -0.703125q-0.421875 -0.578125 -0.421875 -1.4375q0 -1.03125 0.53125 -1.609375q0.546875 -0.59375 1.375 -0.59375q0.921875 0 1.453125 0.625q0.546875 0.609375 0.515625 1.859375l-2.75 0q0.015625 0.5 0.265625 0.765625q0.265625 0.265625 0.640625 0.265625q0.25 0 0.421875 -0.140625q0.1875 -0.140625 0.28125 -0.453125zm0.0625 -1.109375q-0.015625 -0.46875 -0.25 -0.71875q-0.234375 -0.25 -0.578125 -0.25q-0.359375 0 -0.59375 0.265625q-0.234375 0.265625 -0.21875 0.703125l1.640625 0zm5.5898438 -0.484375l-1.078125 0.1875q-0.046875 -0.3125 -0.25 -0.46875q-0.1875 -0.171875 -0.5 -0.171875q-0.40625 0 -0.65625 0.28125q-0.234375 0.28125 -0.234375 0.9375q0 0.75 0.234375 1.0625q0.25 0.296875 0.671875 0.296875q0.3125 0 0.515625 -0.171875q0.203125 -0.1875 0.28125 -0.625l1.078125 0.1875q-0.171875 0.734375 -0.65625 1.125q-0.46875 0.375 -1.265625 0.375q-0.90625 0 -1.453125 -0.578125q-0.546875 -0.578125 -0.546875 -1.59375q0 -1.015625 0.546875 -1.59375q0.546875 -0.578125 1.46875 -0.578125q0.765625 0 1.203125 0.328125q0.453125 0.328125 0.640625 1.0zm2.7460938 -1.234375l0 0.875l-0.75 0l0 1.671875q0 0.515625 0.015625 0.609375q0.015625 0.078125 0.09375 0.140625q0.078125 0.046875 0.1875 0.046875q0.15625 0 0.4375 -0.109375l0.09375 0.84375q-0.375 0.171875 -0.859375 0.171875q-0.296875 0 -0.546875 -0.09375q-0.234375 -0.109375 -0.34375 -0.265625q-0.109375 -0.15625 -0.15625 -0.421875q-0.03125 -0.203125 -0.03125 -0.78125l0 -1.8125l-0.5 0l0 -0.875l0.5 0l0 -0.8125l1.109375 -0.640625l0 1.453125l0.75 0zm0.5078125 2.015625q0 -0.546875 0.265625 -1.046875q0.265625 -0.515625 0.75 -0.78125q0.5 -0.28125 1.109375 -0.28125q0.953125 0 1.546875 0.625q0.609375 0.609375 0.609375 1.53125q0 0.953125 -0.609375 1.578125q-0.609375 0.609375 -1.53125 0.609375q-0.578125 0 -1.09375 -0.25q-0.515625 -0.265625 -0.78125 -0.765625q-0.265625 -0.5 -0.265625 -1.21875zm1.125 0.0625q0 0.625 0.28125 0.953125q0.296875 0.328125 0.734375 0.328125q0.421875 0 0.703125 -0.328125q0.296875 -0.328125 0.296875 -0.953125q0 -0.609375 -0.296875 -0.9375q-0.28125 -0.328125 -0.703125 -0.328125q-0.4375 0 -0.734375 0.328125q-0.28125 0.328125 -0.28125 0.9375zm5.0585938 2.078125l-1.09375 0l0 -4.15625l1.015625 0l0 0.59375q0.265625 -0.421875 0.46875 -0.546875q0.21875 -0.140625 0.484375 -0.140625q0.375 0 0.71875 0.21875l-0.34375 0.953125q-0.28125 -0.1875 -0.515625 -0.1875q-0.234375 0 -0.390625 0.140625q-0.15625 0.125 -0.25 0.453125q-0.09375 0.328125 -0.09375 1.390625l0 1.28125zm1.5507812 -4.15625l1.15625 0l1.0 2.953125l0.96875 -2.953125l1.140625 0l-1.46875 4.0l-0.265625 0.71875q-0.140625 0.375 -0.28125 0.5625q-0.125 0.1875 -0.296875 0.296875q-0.171875 0.125 -0.421875 0.1875q-0.234375 0.078125 -0.546875 0.078125q-0.328125 0 -0.625 -0.0625l-0.09375 -0.859375q0.25 0.046875 0.453125 0.046875q0.390625 0 0.5625 -0.234375q0.1875 -0.21875 0.296875 -0.5625l-1.578125 -4.171875zm4.3710938 4.15625l0 -1.09375l1.09375 0l0 1.09375l-1.09375 0zm2.1445312 -4.15625l1.0 0l0 0.578125q0.546875 -0.671875 1.296875 -0.671875q0.40625 0 0.6875 0.171875q0.296875 0.15625 0.484375 0.5q0.28125 -0.34375 0.59375 -0.5q0.3125 -0.171875 0.671875 -0.171875q0.453125 0 0.765625 0.1875q0.328125 0.1875 0.484375 0.546875q0.109375 0.265625 0.109375 0.859375l0 2.65625l-1.09375 0l0 -2.375q0 -0.609375 -0.109375 -0.796875q-0.15625 -0.234375 -0.46875 -0.234375q-0.234375 0 -0.4375 0.140625q-0.203125 0.140625 -0.296875 0.421875q-0.09375 0.265625 -0.09375 0.84375l0 2.0l-1.09375 0l0 -2.28125q0 -0.59375 -0.0625 -0.765625q-0.046875 -0.1875 -0.171875 -0.265625q-0.125 -0.09375 -0.34375 -0.09375q-0.25 0 -0.453125 0.140625q-0.203125 0.140625 -0.296875 0.40625q-0.078125 0.25 -0.078125 0.84375l0 2.015625l-1.09375 0l0 -4.15625zm6.8007812 2.96875l1.109375 -0.171875q0.0625 0.328125 0.28125 0.5q0.21875 0.15625 0.59375 0.15625q0.4375 0 0.640625 -0.15625q0.15625 -0.109375 0.15625 -0.296875q0 -0.125 -0.078125 -0.203125q-0.09375 -0.078125 -0.375 -0.140625q-1.328125 -0.296875 -1.6875 -0.53125q-0.484375 -0.34375 -0.484375 -0.9375q0 -0.546875 0.421875 -0.90625q0.421875 -0.375 1.328125 -0.375q0.84375 0 1.25 0.28125q0.421875 0.28125 0.578125 0.828125l-1.03125 0.1875q-0.0625 -0.25 -0.25 -0.375q-0.1875 -0.125 -0.53125 -0.125q-0.4375 0 -0.625 0.125q-0.125 0.078125 -0.125 0.21875q0 0.109375 0.109375 0.203125q0.15625 0.109375 1.03125 0.3125q0.875 0.1875 1.21875 0.484375q0.34375 0.28125 0.34375 0.8125q0 0.5625 -0.484375 0.984375q-0.46875 0.40625 -1.40625 0.40625q-0.84375 0 -1.34375 -0.34375q-0.484375 -0.34375 -0.640625 -0.9375zm4.7304688 1.46875l1.265625 0.140625q0.03125 0.21875 0.140625 0.3125q0.15625 0.109375 0.484375 0.109375q0.4375 0 0.65625 -0.125q0.140625 -0.09375 0.21875 -0.28125q0.046875 -0.140625 0.046875 -0.5l0 -0.609375q-0.5 0.671875 -1.25 0.671875q-0.828125 0 -1.3125 -0.703125q-0.390625 -0.5625 -0.390625 -1.390625q0 -1.046875 0.5 -1.59375q0.5 -0.5625 1.25 -0.5625q0.765625 0 1.265625 0.6875l0 -0.59375l1.03125 0l0 3.734375q0 0.734375 -0.125 1.09375q-0.109375 0.359375 -0.328125 0.5625q-0.21875 0.21875 -0.59375 0.328125q-0.359375 0.125 -0.921875 0.125q-1.046875 0 -1.5 -0.359375q-0.4375 -0.359375 -0.4375 -0.921875q0 -0.046875 0 -0.125zm0.984375 -2.4375q0 0.65625 0.25 0.96875q0.265625 0.296875 0.640625 0.296875q0.40625 0 0.671875 -0.3125q0.28125 -0.3125 0.28125 -0.9375q0 -0.640625 -0.265625 -0.953125q-0.265625 -0.3125 -0.671875 -0.3125q-0.390625 0 -0.65625 0.3125q-0.25 0.296875 -0.25 0.9375z" fill-rule="nonzero"/><path fill="#000000" fill-opacity="0.0" d="m536.3455 61.433105l77.12421 0l0 33.350105l-77.12421 0z" fill-rule="evenodd"/><path fill="#000000" d="m543.3924 74.113106l-2.046875 -5.734375l1.25 0l1.453125 4.25l1.40625 -4.25l1.21875 0l-2.046875 5.734375l-1.234375 0zm5.8320312 -1.328125l1.09375 0.1875q-0.21875 0.609375 -0.671875 0.921875q-0.453125 0.3125 -1.140625 0.3125q-1.078125 0 -1.59375 -0.703125q-0.421875 -0.578125 -0.421875 -1.4375q0 -1.03125 0.53125 -1.609375q0.546875 -0.59375 1.375 -0.59375q0.921875 0 1.453125 0.625q0.546875 0.609375 0.515625 1.859375l-2.75 0q0.015625 0.5 0.265625 0.765625q0.265625 0.265625 0.640625 0.265625q0.25 0 0.421875 -0.140625q0.1875 -0.140625 0.28125 -0.453125zm0.0625 -1.109375q-0.015625 -0.46875 -0.25 -0.71875q-0.234375 -0.25 -0.578125 -0.25q-0.359375 0 -0.59375 0.265625q-0.234375 0.265625 -0.21875 0.703125l1.640625 0zm3.0742188 -3.296875l0 2.109375q0.53125 -0.625 1.265625 -0.625q0.375 0 0.671875 0.140625q0.3125 0.140625 0.46875 0.359375q0.15625 0.21875 0.203125 0.484375q0.0625 0.265625 0.0625 0.828125l0 2.4375l-1.09375 0l0 -2.1875q0 -0.65625 -0.0625 -0.828125q-0.0625 -0.1875 -0.21875 -0.28125q-0.15625 -0.109375 -0.390625 -0.109375q-0.28125 0 -0.5 0.140625q-0.203125 0.125 -0.3125 0.390625q-0.09375 0.265625 -0.09375 0.796875l0 2.078125l-1.09375 0l0 -5.734375l1.09375 0zm3.7929688 1.015625l0 -1.015625l1.09375 0l0 1.015625l-1.09375 0zm0 4.71875l0 -4.15625l1.09375 0l0 4.15625l-1.09375 0zm5.8320312 -2.921875l-1.078125 0.1875q-0.046875 -0.3125 -0.25 -0.46875q-0.1875 -0.171875 -0.5 -0.171875q-0.40625 0 -0.65625 0.28125q-0.234375 0.28125 -0.234375 0.9375q0 0.75 0.234375 1.0625q0.25 0.296875 0.671875 0.296875q0.3125 0 0.515625 -0.171875q0.203125 -0.1875 0.28125 -0.625l1.078125 0.1875q-0.171875 0.734375 -0.65625 1.125q-0.46875 0.375 -1.265625 0.375q-0.90625 0 -1.453125 -0.578125q-0.546875 -0.578125 -0.546875 -1.59375q0 -1.015625 0.546875 -1.59375q0.546875 -0.578125 1.46875 -0.578125q0.765625 0 1.203125 0.328125q0.453125 0.328125 0.640625 1.0zm0.83984375 2.921875l0 -5.734375l1.09375 0l0 5.734375l-1.09375 0zm4.6289062 -1.328125l1.09375 0.1875q-0.21875 0.609375 -0.671875 0.921875q-0.453125 0.3125 -1.140625 0.3125q-1.078125 0 -1.59375 -0.703125q-0.421875 -0.578125 -0.421875 -1.4375q0 -1.03125 0.53125 -1.609375q0.546875 -0.59375 1.375 -0.59375q0.921875 0 1.453125 0.625q0.546875 0.609375 0.515625 1.859375l-2.75 0q0.015625 0.5 0.265625 0.765625q0.265625 0.265625 0.640625 0.265625q0.25 0 0.421875 -0.140625q0.1875 -0.140625 0.28125 -0.453125zm0.0625 -1.109375q-0.015625 -0.46875 -0.25 -0.71875q-0.234375 -0.25 -0.578125 -0.25q-0.359375 0 -0.59375 0.265625q-0.234375 0.265625 -0.21875 0.703125l1.640625 0z" fill-rule="nonzero"/><path fill="#000000" d="m545.5955 82.00373l1.125 0.359375q-0.265625 0.9375 -0.875 1.390625q-0.59375 0.453125 -1.515625 0.453125q-1.140625 0 -1.875 -0.78125q-0.734375 -0.78125 -0.734375 -2.125q0 -1.4375 0.734375 -2.21875q0.75 -0.796875 1.953125 -0.796875q1.046875 0 1.703125 0.625q0.390625 0.359375 0.59375 1.046875l-1.15625 0.28125q-0.09375 -0.453125 -0.421875 -0.703125q-0.3125 -0.265625 -0.78125 -0.265625q-0.640625 0 -1.03125 0.46875q-0.390625 0.453125 -0.390625 1.46875q0 1.09375 0.390625 1.5625q0.390625 0.453125 1.015625 0.453125q0.453125 0 0.78125 -0.296875q0.34375 -0.296875 0.484375 -0.921875zm1.8554688 -0.03125q0 -0.546875 0.265625 -1.046875q0.265625 -0.515625 0.75 -0.78125q0.5 -0.28125 1.109375 -0.28125q0.953125 0 1.546875 0.625q0.609375 0.609375 0.609375 1.53125q0 0.953125 -0.609375 1.578125q-0.609375 0.609375 -1.53125 0.609375q-0.578125 0 -1.09375 -0.25q-0.515625 -0.265625 -0.78125 -0.765625q-0.265625 -0.5 -0.265625 -1.21875zm1.125 0.0625q0 0.625 0.28125 0.953125q0.296875 0.328125 0.734375 0.328125q0.421875 0 0.703125 -0.328125q0.296875 -0.328125 0.296875 -0.953125q0 -0.609375 -0.296875 -0.9375q-0.28125 -0.328125 -0.703125 -0.328125q-0.4375 0 -0.734375 0.328125q-0.28125 0.328125 -0.28125 0.9375zm3.9335938 -2.078125l1.0 0l0 0.578125q0.546875 -0.671875 1.296875 -0.671875q0.40625 0 0.6875 0.171875q0.296875 0.15625 0.484375 0.5q0.28125 -0.34375 0.59375 -0.5q0.3125 -0.171875 0.671875 -0.171875q0.453125 0 0.765625 0.1875q0.328125 0.1875 0.484375 0.546875q0.109375 0.265625 0.109375 0.859375l0 2.65625l-1.09375 0l0 -2.375q0 -0.609375 -0.109375 -0.796875q-0.15625 -0.234375 -0.46875 -0.234375q-0.234375 0 -0.4375 0.140625q-0.203125 0.140625 -0.296875 0.421875q-0.09375 0.265625 -0.09375 0.84375l0 2.0l-1.09375 0l0 -2.28125q0 -0.59375 -0.0625 -0.765625q-0.046875 -0.1875 -0.171875 -0.265625q-0.125 -0.09375 -0.34375 -0.09375q-0.25 0 -0.453125 0.140625q-0.203125 0.140625 -0.296875 0.40625q-0.078125 0.25 -0.078125 0.84375l0 2.015625l-1.09375 0l0 -4.15625zm7.1132812 0l1.0 0l0 0.578125q0.546875 -0.671875 1.296875 -0.671875q0.40625 0 0.6875 0.171875q0.296875 0.15625 0.484375 0.5q0.28125 -0.34375 0.59375 -0.5q0.3125 -0.171875 0.671875 -0.171875q0.453125 0 0.765625 0.1875q0.328125 0.1875 0.484375 0.546875q0.109375 0.265625 0.109375 0.859375l0 2.65625l-1.09375 0l0 -2.375q0 -0.609375 -0.109375 -0.796875q-0.15625 -0.234375 -0.46875 -0.234375q-0.234375 0 -0.4375 0.140625q-0.203125 0.140625 -0.296875 0.421875q-0.09375 0.265625 -0.09375 0.84375l0 2.0l-1.09375 0l0 -2.28125q0 -0.59375 -0.0625 -0.765625q-0.046875 -0.1875 -0.171875 -0.265625q-0.125 -0.09375 -0.34375 -0.09375q-0.25 0 -0.453125 0.140625q-0.203125 0.140625 -0.296875 0.40625q-0.078125 0.25 -0.078125 0.84375l0 2.015625l-1.09375 0l0 -4.15625zm8.003906 1.265625l-0.984375 -0.171875q0.15625 -0.609375 0.5625 -0.890625q0.421875 -0.296875 1.234375 -0.296875q0.734375 0 1.09375 0.1875q0.359375 0.171875 0.5 0.4375q0.140625 0.265625 0.140625 0.984375l0 1.28125q0 0.546875 0.046875 0.8125q0.046875 0.25 0.203125 0.546875l-1.09375 0q-0.046875 -0.109375 -0.109375 -0.328125q-0.015625 -0.09375 -0.03125 -0.125q-0.28125 0.265625 -0.609375 0.40625q-0.3125 0.140625 -0.671875 0.140625q-0.640625 0 -1.015625 -0.34375q-0.375 -0.359375 -0.375 -0.890625q0 -0.34375 0.171875 -0.609375q0.171875 -0.28125 0.46875 -0.421875q0.3125 -0.15625 0.875 -0.265625q0.765625 -0.140625 1.0625 -0.265625l0 -0.109375q0 -0.328125 -0.15625 -0.453125q-0.15625 -0.140625 -0.578125 -0.140625q-0.296875 0 -0.46875 0.125q-0.15625 0.109375 -0.265625 0.390625zm1.46875 0.890625q-0.203125 0.078125 -0.671875 0.171875q-0.453125 0.09375 -0.59375 0.1875q-0.203125 0.15625 -0.203125 0.390625q0 0.234375 0.171875 0.40625q0.171875 0.15625 0.4375 0.15625q0.296875 0 0.5625 -0.1875q0.203125 -0.15625 0.265625 -0.359375q0.03125 -0.140625 0.03125 -0.546875l0 -0.21875zm5.9335938 2.0l-1.09375 0l0 -2.125q0 -0.671875 -0.078125 -0.859375q-0.0625 -0.203125 -0.21875 -0.3125q-0.15625 -0.109375 -0.375 -0.109375q-0.296875 0 -0.53125 0.15625q-0.21875 0.15625 -0.296875 0.421875q-0.078125 0.25 -0.078125 0.953125l0 1.875l-1.109375 0l0 -4.15625l1.03125 0l0 0.609375q0.53125 -0.703125 1.359375 -0.703125q0.359375 0 0.65625 0.140625q0.3125 0.125 0.46875 0.328125q0.15625 0.203125 0.203125 0.46875q0.0625 0.25 0.0625 0.734375l0 2.578125zm4.9179688 0l-1.015625 0l0 -0.609375q-0.25 0.359375 -0.59375 0.53125q-0.34375 0.171875 -0.703125 0.171875q-0.71875 0 -1.234375 -0.578125q-0.5 -0.578125 -0.5 -1.609375q0 -1.046875 0.5 -1.59375q0.5 -0.5625 1.25 -0.5625q0.703125 0 1.203125 0.578125l0 -2.0625l1.09375 0l0 5.734375zm-2.921875 -2.171875q0 0.671875 0.1875 0.96875q0.265625 0.421875 0.734375 0.421875q0.375 0 0.640625 -0.3125q0.265625 -0.328125 0.265625 -0.96875q0 -0.71875 -0.265625 -1.03125q-0.25 -0.3125 -0.640625 -0.3125q-0.390625 0 -0.65625 0.3125q-0.265625 0.3125 -0.265625 0.921875zm4.0117188 2.171875l0 -1.09375l1.09375 0l0 1.09375l-1.09375 0zm2.1445312 -4.15625l1.0 0l0 0.578125q0.546875 -0.671875 1.296875 -0.671875q0.40625 0 0.6875 0.171875q0.296875 0.15625 0.484375 0.5q0.28125 -0.34375 0.59375 -0.5q0.3125 -0.171875 0.671875 -0.171875q0.453125 0 0.765625 0.1875q0.328125 0.1875 0.484375 0.546875q0.109375 0.265625 0.109375 0.859375l0 2.65625l-1.09375 0l0 -2.375q0 -0.609375 -0.109375 -0.796875q-0.15625 -0.234375 -0.46875 -0.234375q-0.234375 0 -0.4375 0.140625q-0.203125 0.140625 -0.296875 0.421875q-0.09375 0.265625 -0.09375 0.84375l0 2.0l-1.09375 0l0 -2.28125q0 -0.59375 -0.0625 -0.765625q-0.046875 -0.1875 -0.171875 -0.265625q-0.125 -0.09375 -0.34375 -0.09375q-0.25 0 -0.453125 0.140625q-0.203125 0.140625 -0.296875 0.40625q-0.078125 0.25 -0.078125 0.84375l0 2.015625l-1.09375 0l0 -4.15625zm6.8007812 2.96875l1.109375 -0.171875q0.0625 0.328125 0.28125 0.5q0.21875 0.15625 0.59375 0.15625q0.4375 0 0.640625 -0.15625q0.15625 -0.109375 0.15625 -0.296875q0 -0.125 -0.078125 -0.203125q-0.09375 -0.078125 -0.375 -0.140625q-1.328125 -0.296875 -1.6875 -0.53125q-0.484375 -0.34375 -0.484375 -0.9375q0 -0.546875 0.421875 -0.90625q0.421875 -0.375 1.328125 -0.375q0.84375 0 1.25 0.28125q0.421875 0.28125 0.578125 0.828125l-1.03125 0.1875q-0.0625 -0.25 -0.25 -0.375q-0.1875 -0.125 -0.53125 -0.125q-0.4375 0 -0.625 0.125q-0.125 0.078125 -0.125 0.21875q0 0.109375 0.109375 0.203125q0.15625 0.109375 1.03125 0.3125q0.875 0.1875 1.21875 0.484375q0.34375 0.28125 0.34375 0.8125q0 0.5625 -0.484375 0.984375q-0.46875 0.40625 -1.40625 0.40625q-0.84375 0 -1.34375 -0.34375q-0.484375 -0.34375 -0.640625 -0.9375zm4.7304688 1.46875l1.265625 0.140625q0.03125 0.21875 0.140625 0.3125q0.15625 0.109375 0.484375 0.109375q0.4375 0 0.65625 -0.125q0.140625 -0.09375 0.21875 -0.28125q0.046875 -0.140625 0.046875 -0.5l0 -0.609375q-0.5 0.671875 -1.25 0.671875q-0.828125 0 -1.3125 -0.703125q-0.390625 -0.5625 -0.390625 -1.390625q0 -1.046875 0.5 -1.59375q0.5 -0.5625 1.25 -0.5625q0.765625 0 1.265625 0.6875l0 -0.59375l1.03125 0l0 3.734375q0 0.734375 -0.125 1.09375q-0.109375 0.359375 -0.328125 0.5625q-0.21875 0.21875 -0.59375 0.328125q-0.359375 0.125 -0.921875 0.125q-1.046875 0 -1.5 -0.359375q-0.4375 -0.359375 -0.4375 -0.921875q0 -0.046875 0 -0.125zm0.984375 -2.4375q0 0.65625 0.25 0.96875q0.265625 0.296875 0.640625 0.296875q0.40625 0 0.671875 -0.3125q0.28125 -0.3125 0.28125 -0.9375q0 -0.640625 -0.265625 -0.953125q-0.265625 -0.3125 -0.671875 -0.3125q-0.390625 0 -0.65625 0.3125q-0.25 0.296875 -0.25 0.9375z" fill-rule="nonzero"/><path fill="#000000" fill-opacity="0.0" d="m478.4645 154.4064l67.01657 0l0 33.350098l-67.01657 0z" fill-rule="evenodd"/><path fill="#000000" d="m484.0895 167.0864l0 -5.734375l2.546875 0q0.765625 0 1.15625 0.15625q0.40625 0.15625 0.640625 0.546875q0.234375 0.390625 0.234375 0.859375q0 0.609375 -0.390625 1.03125q-0.390625 0.421875 -1.21875 0.53125q0.296875 0.140625 0.453125 0.28125q0.34375 0.3125 0.640625 0.765625l0.984375 1.5625l-0.953125 0l-0.75 -1.1875q-0.328125 -0.515625 -0.546875 -0.78125q-0.21875 -0.28125 -0.390625 -0.390625q-0.171875 -0.109375 -0.34375 -0.15625q-0.125 -0.03125 -0.421875 -0.03125l-0.875 0l0 2.546875l-0.765625 0zm0.765625 -3.203125l1.625 0q0.515625 0 0.8125 -0.109375q0.296875 -0.109375 0.4375 -0.34375q0.15625 -0.234375 0.15625 -0.515625q0 -0.40625 -0.296875 -0.65625q-0.28125 -0.265625 -0.921875 -0.265625l-1.8125 0l0 1.890625zm7.7617188 1.859375l0.71875 0.09375q-0.171875 0.640625 -0.640625 1.0q-0.453125 0.34375 -1.1875 0.34375q-0.90625 0 -1.4375 -0.5625q-0.53125 -0.5625 -0.53125 -1.578125q0 -1.046875 0.53125 -1.625q0.546875 -0.578125 1.40625 -0.578125q0.828125 0 1.359375 0.578125q0.53125 0.5625 0.53125 1.59375q0 0.0625 -0.015625 0.1875l-3.09375 0q0.046875 0.671875 0.390625 1.046875q0.34375 0.359375 0.875 0.359375q0.375 0 0.640625 -0.203125q0.28125 -0.203125 0.453125 -0.65625zm-2.3125 -1.125l2.3125 0q-0.046875 -0.53125 -0.265625 -0.796875q-0.328125 -0.40625 -0.875 -0.40625q-0.484375 0 -0.8125 0.328125q-0.328125 0.328125 -0.359375 0.875zm3.9179688 2.46875l0 -4.15625l0.625 0l0 0.59375q0.203125 -0.3125 0.515625 -0.5q0.328125 -0.1875 0.75 -0.1875q0.453125 0 0.75 0.203125q0.296875 0.1875 0.421875 0.53125q0.484375 -0.734375 1.28125 -0.734375q0.609375 0 0.9375 0.34375q0.34375 0.34375 0.34375 1.0625l0 2.84375l-0.703125 0l0 -2.609375q0 -0.421875 -0.078125 -0.609375q-0.0625 -0.1875 -0.25 -0.296875q-0.171875 -0.125 -0.40625 -0.125q-0.4375 0 -0.734375 0.296875q-0.28125 0.296875 -0.28125 0.9375l0 2.40625l-0.703125 0l0 -2.703125q0 -0.46875 -0.171875 -0.703125q-0.171875 -0.234375 -0.5625 -0.234375q-0.296875 0 -0.5625 0.15625q-0.25 0.15625 -0.359375 0.46875q-0.109375 0.296875 -0.109375 0.859375l0 2.15625l-0.703125 0zm6.3984375 -2.078125q0 -1.15625 0.640625 -1.703125q0.53125 -0.46875 1.3125 -0.46875q0.84375 0 1.390625 0.5625q0.546875 0.5625 0.546875 1.546875q0 0.8125 -0.25 1.265625q-0.234375 0.453125 -0.703125 0.71875q-0.453125 0.25 -0.984375 0.25q-0.875 0 -1.421875 -0.5625q-0.53125 -0.5625 -0.53125 -1.609375zm0.71875 0q0 0.796875 0.34375 1.203125q0.359375 0.390625 0.890625 0.390625q0.515625 0 0.859375 -0.390625q0.359375 -0.40625 0.359375 -1.21875q0 -0.78125 -0.359375 -1.171875q-0.34375 -0.390625 -0.859375 -0.390625q-0.53125 0 -0.890625 0.390625q-0.34375 0.390625 -0.34375 1.1875zm5.5273438 1.453125l0.109375 0.609375q-0.296875 0.078125 -0.53125 0.078125q-0.390625 0 -0.609375 -0.125q-0.203125 -0.125 -0.296875 -0.3125q-0.078125 -0.203125 -0.078125 -0.84375l0 -2.390625l-0.515625 0l0 -0.546875l0.515625 0l0 -1.015625l0.703125 -0.421875l0 1.4375l0.703125 0l0 0.546875l-0.703125 0l0 2.4375q0 0.296875 0.03125 0.390625q0.046875 0.078125 0.125 0.125q0.078125 0.046875 0.234375 0.046875q0.125 0 0.3125 -0.015625zm3.5351562 -0.71875l0.71875 0.09375q-0.171875 0.640625 -0.640625 1.0q-0.453125 0.34375 -1.1875 0.34375q-0.90625 0 -1.4375 -0.5625q-0.53125 -0.5625 -0.53125 -1.578125q0 -1.046875 0.53125 -1.625q0.546875 -0.578125 1.40625 -0.578125q0.828125 0 1.359375 0.578125q0.53125 0.5625 0.53125 1.59375q0 0.0625 -0.015625 0.1875l-3.09375 0q0.046875 0.671875 0.390625 1.046875q0.34375 0.359375 0.875 0.359375q0.375 0 0.640625 -0.203125q0.28125 -0.203125 0.453125 -0.65625zm-2.3125 -1.125l2.3125 0q-0.046875 -0.53125 -0.265625 -0.796875q-0.328125 -0.40625 -0.875 -0.40625q-0.484375 0 -0.8125 0.328125q-0.328125 0.328125 -0.359375 0.875zm8.089874 0.453125l0.765625 0.203125q-0.25 0.921875 -0.875 1.421875q-0.609375 0.484375 -1.5 0.484375q-0.921875 0 -1.515625 -0.375q-0.578125 -0.375 -0.875 -1.09375q-0.29690552 -0.71875 -0.29690552 -1.53125q0 -0.890625 0.32815552 -1.5625q0.34375 -0.671875 0.96875 -1.015625q0.640625 -0.34375 1.40625 -0.34375q0.859375 0 1.4375 0.4375q0.59375 0.4375 0.8125 1.234375l-0.734375 0.171875q-0.203125 -0.625 -0.59375 -0.90625q-0.375 -0.28125 -0.9375 -0.28125q-0.671875 0 -1.109375 0.3125q-0.4375 0.3125 -0.625 0.84375q-0.171875 0.53125 -0.171875 1.109375q0 0.71875 0.203125 1.265625q0.21875 0.546875 0.65625 0.828125q0.453125 0.265625 0.984375 0.265625q0.640625 0 1.078125 -0.359375q0.4375 -0.375 0.59375 -1.109375zm1.6054688 2.015625l0 -4.15625l0.625 0l0 0.59375q0.203125 -0.3125 0.515625 -0.5q0.328125 -0.1875 0.75 -0.1875q0.453125 0 0.75 0.203125q0.296875 0.1875 0.421875 0.53125q0.484375 -0.734375 1.28125 -0.734375q0.609375 0 0.9375 0.34375q0.34375 0.34375 0.34375 1.0625l0 2.84375l-0.703125 0l0 -2.609375q0 -0.421875 -0.078125 -0.609375q-0.0625 -0.1875 -0.25 -0.296875q-0.171875 -0.125 -0.40625 -0.125q-0.4375 0 -0.734375 0.296875q-0.28125 0.296875 -0.28125 0.9375l0 2.40625l-0.703125 0l0 -2.703125q0 -0.46875 -0.171875 -0.703125q-0.171875 -0.234375 -0.5625 -0.234375q-0.296875 0 -0.5625 0.15625q-0.25 0.15625 -0.359375 0.46875q-0.109375 0.296875 -0.109375 0.859375l0 2.15625l-0.703125 0zm9.3515625 0l0 -0.53125q-0.390625 0.625 -1.15625 0.625q-0.5 0 -0.921875 -0.265625q-0.40625 -0.28125 -0.640625 -0.765625q-0.21875 -0.5 -0.21875 -1.140625q0 -0.609375 0.203125 -1.109375q0.203125 -0.515625 0.609375 -0.78125q0.421875 -0.28125 0.9375 -0.28125q0.375 0 0.65625 0.171875q0.296875 0.15625 0.484375 0.40625l0 -2.0625l0.703125 0l0 5.734375l-0.65625 0zm-2.21875 -2.078125q0 0.796875 0.328125 1.203125q0.34375 0.390625 0.796875 0.390625q0.46875 0 0.78125 -0.375q0.328125 -0.375 0.328125 -1.15625q0 -0.84375 -0.328125 -1.234375q-0.328125 -0.40625 -0.8125 -0.40625q-0.46875 0 -0.78125 0.390625q-0.3125 0.375 -0.3125 1.1875z" fill-rule="nonzero"/><path fill="#000000" fill-opacity="0.0" d="m425.10977 154.40622l50.02884 0l0 16.834473l-50.02884 0z" fill-rule="evenodd"/><path fill="#000000" d="m430.7504 167.08623l0 -5.734375l4.140625 0l0 0.6875l-3.390625 0l0 1.75l3.171875 0l0 0.671875l-3.171875 0l0 1.953125l3.515625 0l0 0.671875l-4.265625 0zm5.2265625 0l0 -4.15625l0.625 0l0 0.59375q0.46875 -0.6875 1.328125 -0.6875q0.375 0 0.6875 0.140625q0.3125 0.140625 0.46875 0.359375q0.15625 0.21875 0.21875 0.515625q0.046875 0.1875 0.046875 0.6875l0 2.546875l-0.703125 0l0 -2.53125q0 -0.421875 -0.09375 -0.625q-0.078125 -0.21875 -0.296875 -0.34375q-0.203125 -0.140625 -0.484375 -0.140625q-0.4375 0 -0.765625 0.296875q-0.328125 0.28125 -0.328125 1.078125l0 2.265625l-0.703125 0zm4.3242188 0.34375l0.671875 0.109375q0.046875 0.3125 0.25 0.453125q0.25 0.203125 0.703125 0.203125q0.5 0 0.765625 -0.203125q0.265625 -0.1875 0.359375 -0.546875q0.046875 -0.21875 0.046875 -0.90625q-0.46875 0.546875 -1.15625 0.546875q-0.84375 0 -1.3125 -0.609375q-0.46875 -0.625 -0.46875 -1.484375q0 -0.59375 0.203125 -1.09375q0.21875 -0.515625 0.625 -0.78125q0.40625 -0.28125 0.96875 -0.28125q0.734375 0 1.203125 0.59375l0 -0.5l0.65625 0l0 3.59375q0 0.96875 -0.203125 1.375q-0.203125 0.40625 -0.625 0.640625q-0.421875 0.234375 -1.046875 0.234375q-0.75 0 -1.203125 -0.34375q-0.453125 -0.328125 -0.4375 -1.0zm0.578125 -2.5q0 0.828125 0.3125 1.203125q0.328125 0.375 0.828125 0.375q0.484375 0 0.8125 -0.375q0.328125 -0.375 0.328125 -1.171875q0 -0.765625 -0.34375 -1.140625q-0.34375 -0.390625 -0.8125 -0.390625q-0.46875 0 -0.796875 0.375q-0.328125 0.375 -0.328125 1.125zm6.6992188 1.640625q-0.390625 0.328125 -0.75 0.46875q-0.359375 0.140625 -0.78125 0.140625q-0.671875 0 -1.046875 -0.328125q-0.359375 -0.34375 -0.359375 -0.859375q0 -0.3125 0.125 -0.5625q0.140625 -0.25 0.359375 -0.390625q0.234375 -0.15625 0.515625 -0.234375q0.203125 -0.0625 0.625 -0.109375q0.859375 -0.109375 1.25 -0.25q0.015625 -0.140625 0.015625 -0.171875q0 -0.4375 -0.203125 -0.609375q-0.265625 -0.234375 -0.796875 -0.234375q-0.5 0 -0.734375 0.171875q-0.234375 0.171875 -0.359375 0.609375l-0.6875 -0.09375q0.09375 -0.4375 0.3125 -0.703125q0.21875 -0.28125 0.625 -0.421875q0.40625 -0.15625 0.9375 -0.15625q0.53125 0 0.859375 0.125q0.34375 0.125 0.5 0.328125q0.15625 0.1875 0.21875 0.46875q0.03125 0.1875 0.03125 0.65625l0 0.9375q0 0.96875 0.046875 1.234375q0.046875 0.265625 0.171875 0.5l-0.734375 0q-0.109375 -0.21875 -0.140625 -0.515625zm-0.0625 -1.5625q-0.375 0.15625 -1.140625 0.265625q-0.4375 0.0625 -0.625 0.140625q-0.171875 0.078125 -0.265625 0.234375q-0.09375 0.140625 -0.09375 0.328125q0 0.28125 0.203125 0.46875q0.21875 0.1875 0.625 0.1875q0.40625 0 0.71875 -0.171875q0.328125 -0.1875 0.46875 -0.5q0.109375 -0.234375 0.109375 -0.703125l0 -0.25zm1.6835938 2.421875l0.671875 0.109375q0.046875 0.3125 0.25 0.453125q0.25 0.203125 0.703125 0.203125q0.5 0 0.765625 -0.203125q0.265625 -0.1875 0.359375 -0.546875q0.046875 -0.21875 0.046875 -0.90625q-0.46875 0.546875 -1.15625 0.546875q-0.84375 0 -1.3125 -0.609375q-0.46875 -0.625 -0.46875 -1.484375q0 -0.59375 0.203125 -1.09375q0.21875 -0.515625 0.625 -0.78125q0.40625 -0.28125 0.96875 -0.28125q0.734375 0 1.203125 0.59375l0 -0.5l0.65625 0l0 3.59375q0 0.96875 -0.203125 1.375q-0.203125 0.40625 -0.625 0.640625q-0.421875 0.234375 -1.046875 0.234375q-0.75 0 -1.203125 -0.34375q-0.453125 -0.328125 -0.4375 -1.0zm0.578125 -2.5q0 0.828125 0.3125 1.203125q0.328125 0.375 0.828125 0.375q0.484375 0 0.8125 -0.375q0.328125 -0.375 0.328125 -1.171875q0 -0.765625 -0.34375 -1.140625q-0.34375 -0.390625 -0.8125 -0.390625q-0.46875 0 -0.796875 0.375q-0.328125 0.375 -0.328125 1.125zm6.8398438 0.8125l0.71875 0.09375q-0.171875 0.640625 -0.640625 1.0q-0.453125 0.34375 -1.1875 0.34375q-0.90625 0 -1.4375 -0.5625q-0.53125 -0.5625 -0.53125 -1.578125q0 -1.046875 0.53125 -1.625q0.546875 -0.578125 1.40625 -0.578125q0.828125 0 1.359375 0.578125q0.53125 0.5625 0.53125 1.59375q0 0.0625 -0.015625 0.1875l-3.09375 0q0.046875 0.671875 0.390625 1.046875q0.34375 0.359375 0.875 0.359375q0.375 0 0.640625 -0.203125q0.28125 -0.203125 0.453125 -0.65625zm-2.3125 -1.125l2.3125 0q-0.046875 -0.53125 -0.265625 -0.796875q-0.328125 -0.40625 -0.875 -0.40625q-0.484375 0 -0.8125 0.328125q-0.328125 0.328125 -0.359375 0.875z" fill-rule="nonzero"/><path fill="#000000" fill-opacity="0.0" d="m72.9975 7.9968967l141.80496 0l0 33.350105l-141.80496 0z" fill-rule="evenodd"/><path fill="#000000" d="m86.4975 24.138147l2.234375 0.71875q-0.515625 1.875 -1.71875 2.796875q-1.1875 0.90625 -3.03125 0.90625q-2.28125 0 -3.75 -1.5625q-1.46875 -1.5625 -1.46875 -4.265625q0 -2.859375 1.46875 -4.4375q1.484375 -1.59375 3.890625 -1.59375q2.09375 0 3.40625 1.25q0.78125 0.734375 1.171875 2.109375l-2.28125 0.546875q-0.203125 -0.890625 -0.859375 -1.40625q-0.640625 -0.515625 -1.5625 -0.515625q-1.265625 0 -2.0625 0.921875q-0.796875 0.90625 -0.796875 2.953125q0 2.171875 0.78125 3.09375q0.78125 0.921875 2.03125 0.921875q0.921875 0 1.578125 -0.578125q0.671875 -0.59375 0.96875 -1.859375zm3.6953125 -0.046875q0 -1.09375 0.53125 -2.109375q0.546875 -1.03125 1.53125 -1.5625q1.0 -0.546875 2.21875 -0.546875q1.875 0 3.078125 1.21875q1.203125 1.21875 1.203125 3.09375q0 1.875 -1.21875 3.125q-1.203125 1.234375 -3.046875 1.234375q-1.140625 0 -2.1875 -0.515625q-1.03125 -0.515625 -1.578125 -1.515625q-0.53125 -1.0 -0.53125 -2.421875zm2.25 0.109375q0 1.234375 0.578125 1.890625q0.59375 0.65625 1.453125 0.65625q0.859375 0 1.4375 -0.65625q0.59375 -0.65625 0.59375 -1.90625q0 -1.21875 -0.59375 -1.875q-0.578125 -0.65625 -1.4375 -0.65625q-0.859375 0 -1.453125 0.65625q-0.578125 0.65625 -0.578125 1.890625zm15.5859375 4.15625l-2.203125 0l0 -4.234375q0 -1.34375 -0.140625 -1.734375q-0.140625 -0.40625 -0.453125 -0.625q-0.3125 -0.21875 -0.765625 -0.21875q-0.5625 0 -1.015625 0.3125q-0.453125 0.3125 -0.625 0.828125q-0.171875 0.515625 -0.171875 1.90625l0 3.765625l-2.1875 0l0 -8.296875l2.03125 0l0 1.21875q1.09375 -1.40625 2.734375 -1.40625q0.734375 0 1.328125 0.265625q0.609375 0.25 0.90625 0.65625q0.3125 0.40625 0.4375 0.921875q0.125 0.515625 0.125 1.484375l0 5.15625zm6.0234375 -8.296875l0 1.75l-1.5 0l0 3.34375q0 1.015625 0.046875 1.1875q0.046875 0.15625 0.1875 0.265625q0.15625 0.109375 0.375 0.109375q0.3125 0 0.890625 -0.203125l0.1875 1.703125q-0.765625 0.328125 -1.734375 0.328125q-0.59375 0 -1.078125 -0.203125q-0.46875 -0.203125 -0.703125 -0.515625q-0.21875 -0.3125 -0.296875 -0.859375q-0.078125 -0.375 -0.078125 -1.546875l0 -3.609375l-1.0 0l0 -1.75l1.0 0l0 -1.65625l2.203125 -1.28125l0 2.9375l1.5 0zm3.625 8.296875l-2.1875 0l0 -8.296875l2.03125 0l0 1.171875q0.53125 -0.828125 0.9375 -1.09375q0.421875 -0.265625 0.953125 -0.265625q0.75 0 1.453125 0.40625l-0.6875 1.921875q-0.546875 -0.359375 -1.03125 -0.359375q-0.453125 0 -0.78125 0.25q-0.3125 0.25 -0.5 0.921875q-0.1875 0.65625 -0.1875 2.78125l0 2.5625zm3.6171875 -4.265625q0 -1.09375 0.53125 -2.109375q0.546875 -1.03125 1.53125 -1.5625q1.0 -0.546875 2.21875 -0.546875q1.875 0 3.078125 1.21875q1.203125 1.21875 1.203125 3.09375q0 1.875 -1.21875 3.125q-1.203125 1.234375 -3.046875 1.234375q-1.140625 0 -2.1875 -0.515625q-1.03125 -0.515625 -1.578125 -1.515625q-0.53125 -1.0 -0.53125 -2.421875zm2.25 0.109375q0 1.234375 0.578125 1.890625q0.59375 0.65625 1.453125 0.65625q0.859375 0 1.4375 -0.65625q0.59375 -0.65625 0.59375 -1.90625q0 -1.21875 -0.59375 -1.875q-0.578125 -0.65625 -1.4375 -0.65625q-0.859375 0 -1.453125 0.65625q-0.578125 0.65625 -0.578125 1.890625zm8.0390625 4.15625l0 -11.453125l2.1875 0l0 11.453125l-2.1875 0z" fill-rule="nonzero"/><path fill="#000000" fill-opacity="0.0" d="m22.24616 61.43215l85.787964 0" fill-rule="evenodd"/><path stroke="#000000" stroke-width="1.0" stroke-linejoin="round" stroke-linecap="butt" d="m22.24616 61.432148l79.78797 0" fill-rule="evenodd"/><path fill="#000000" stroke="#000000" stroke-width="1.0" stroke-linecap="butt" d="m102.034134 63.08388l4.5380936 -1.6517334l-4.5380936 -1.6517334z" fill-rule="evenodd"/><path fill="#000000" fill-opacity="0.0" d="m253.17647 86.57085l151.78526 -0.03188324" fill-rule="evenodd"/><path stroke="#000000" stroke-width="1.0" stroke-linejoin="round" stroke-linecap="butt" d="m253.17647 86.57085l145.78526 -0.03061676" fill-rule="evenodd"/><path fill="#000000" stroke="#000000" stroke-width="1.0" stroke-linecap="butt" d="m398.9621 88.19196l4.5377502 -1.6526871l-4.538452 -1.6507797z" fill-rule="evenodd"/><path fill="#000000" fill-opacity="0.0" d="m539.5739 87.220436l73.896545 0" fill-rule="evenodd"/><path stroke="#000000" stroke-width="1.0" stroke-linejoin="round" stroke-linecap="butt" d="m539.5739 87.22043l67.896545 0" fill-rule="evenodd"/><path fill="#000000" stroke="#000000" stroke-width="1.0" stroke-linecap="butt" d="m607.47046 88.87216l4.538086 -1.6517334l-4.538086 -1.6517258z" fill-rule="evenodd"/><path fill="#000000" fill-opacity="0.0" d="m298.12524 56.898434l177.01202 0l0 33.3501l-177.01202 0z" fill-rule="evenodd"/><path fill="#000000" d="m307.37524 67.469055l1.125 0.359375q-0.265625 0.9375 -0.875 1.390625q-0.59375 0.453125 -1.515625 0.453125q-1.140625 0 -1.875 -0.78125q-0.734375 -0.78125 -0.734375 -2.125q0 -1.4375 0.734375 -2.21875q0.75 -0.7968712 1.953125 -0.7968712q1.046875 0 1.703125 0.6249962q0.390625 0.359375 0.59375 1.046875l-1.15625 0.28125q-0.09375 -0.453125 -0.421875 -0.703125q-0.3125 -0.265625 -0.78125 -0.265625q-0.640625 0 -1.03125 0.46875q-0.390625 0.453125 -0.390625 1.46875q0 1.09375 0.390625 1.5625q0.390625 0.453125 1.015625 0.453125q0.453125 0 0.78125 -0.296875q0.34375 -0.296875 0.484375 -0.921875zm1.8554688 -0.03125q0 -0.546875 0.265625 -1.046875q0.265625 -0.515625 0.75 -0.78125q0.5 -0.28125 1.109375 -0.28125q0.953125 0 1.546875 0.625q0.609375 0.609375 0.609375 1.53125q0 0.953125 -0.609375 1.578125q-0.609375 0.609375 -1.53125 0.609375q-0.578125 0 -1.09375 -0.25q-0.515625 -0.265625 -0.78125 -0.765625q-0.265625 -0.5 -0.265625 -1.21875zm1.125 0.0625q0 0.625 0.28125 0.953125q0.296875 0.328125 0.734375 0.328125q0.421875 0 0.703125 -0.328125q0.296875 -0.328125 0.296875 -0.953125q0 -0.609375 -0.296875 -0.9375q-0.28125 -0.328125 -0.703125 -0.328125q-0.4375 0 -0.734375 0.328125q-0.28125 0.328125 -0.28125 0.9375zm7.7773438 2.078125l-1.09375 0l0 -2.125q0 -0.671875 -0.078125 -0.859375q-0.0625 -0.203125 -0.21875 -0.3125q-0.15625 -0.109375 -0.375 -0.109375q-0.296875 0 -0.53125 0.15625q-0.21875 0.15625 -0.296875 0.421875q-0.078125 0.25 -0.078125 0.953125l0 1.875l-1.109375 0l0 -4.15625l1.03125 0l0 0.609375q0.53125 -0.703125 1.359375 -0.703125q0.359375 0 0.65625 0.140625q0.3125 0.125 0.46875 0.328125q0.15625 0.203125 0.203125 0.46875q0.0625 0.25 0.0625 0.734375l0 2.578125zm3.0273438 -4.15625l0 0.875l-0.75 0l0 1.671875q0 0.515625 0.015625 0.609375q0.015625 0.078125 0.09375 0.140625q0.078125 0.046875 0.1875 0.046875q0.15625 0 0.4375 -0.109375l0.09375 0.84375q-0.375 0.171875 -0.859375 0.171875q-0.296875 0 -0.546875 -0.09375q-0.234375 -0.109375 -0.34375 -0.265625q-0.109375 -0.15625 -0.15625 -0.421875q-0.03125 -0.203125 -0.03125 -0.78125l0 -1.8125l-0.5 0l0 -0.875l0.5 0l0 -0.8125l1.109375 -0.6406212l0 1.4531212l0.75 0zm1.8046875 4.15625l-1.09375 0l0 -4.15625l1.015625 0l0 0.59375q0.265625 -0.421875 0.46875 -0.546875q0.21875 -0.140625 0.484375 -0.140625q0.375 0 0.71875 0.21875l-0.34375 0.953125q-0.28125 -0.1875 -0.515625 -0.1875q-0.234375 0 -0.390625 0.140625q-0.15625 0.125 -0.25 0.453125q-0.09375 0.328125 -0.09375 1.390625l0 1.28125zm1.8164062 -2.140625q0 -0.546875 0.265625 -1.046875q0.265625 -0.515625 0.75 -0.78125q0.5 -0.28125 1.109375 -0.28125q0.953125 0 1.546875 0.625q0.609375 0.609375 0.609375 1.53125q0 0.953125 -0.609375 1.578125q-0.609375 0.609375 -1.53125 0.609375q-0.578125 0 -1.09375 -0.25q-0.515625 -0.265625 -0.78125 -0.765625q-0.265625 -0.5 -0.265625 -1.21875zm1.125 0.0625q0 0.625 0.28125 0.953125q0.296875 0.328125 0.734375 0.328125q0.421875 0 0.703125 -0.328125q0.296875 -0.328125 0.296875 -0.953125q0 -0.609375 -0.296875 -0.9375q-0.28125 -0.328125 -0.703125 -0.328125q-0.4375 0 -0.734375 0.328125q-0.28125 0.328125 -0.28125 0.9375zm4.0117188 2.078125l0 -5.734371l1.09375 0l0 5.734371l-1.09375 0zm5.8945312 -2.109375l1.125 0.359375q-0.265625 0.9375 -0.875 1.390625q-0.59375 0.453125 -1.515625 0.453125q-1.140625 0 -1.875 -0.78125q-0.734375 -0.78125 -0.734375 -2.125q0 -1.4375 0.734375 -2.21875q0.75 -0.7968712 1.953125 -0.7968712q1.046875 0 1.703125 0.6249962q0.390625 0.359375 0.59375 1.046875l-1.15625 0.28125q-0.09375 -0.453125 -0.421875 -0.703125q-0.3125 -0.265625 -0.78125 -0.265625q-0.640625 0 -1.03125 0.46875q-0.390625 0.453125 -0.390625 1.46875q0 1.09375 0.390625 1.5625q0.390625 0.453125 1.015625 0.453125q0.453125 0 0.78125 -0.296875q0.34375 -0.296875 0.484375 -0.921875zm1.8554688 -0.03125q0 -0.546875 0.265625 -1.046875q0.265625 -0.515625 0.75 -0.78125q0.5 -0.28125 1.109375 -0.28125q0.953125 0 1.546875 0.625q0.609375 0.609375 0.609375 1.53125q0 0.953125 -0.609375 1.578125q-0.609375 0.609375 -1.53125 0.609375q-0.578125 0 -1.09375 -0.25q-0.515625 -0.265625 -0.78125 -0.765625q-0.265625 -0.5 -0.265625 -1.21875zm1.125 0.0625q0 0.625 0.28125 0.953125q0.296875 0.328125 0.734375 0.328125q0.421875 0 0.703125 -0.328125q0.296875 -0.328125 0.296875 -0.953125q0 -0.609375 -0.296875 -0.9375q-0.28125 -0.328125 -0.703125 -0.328125q-0.4375 0 -0.734375 0.328125q-0.28125 0.328125 -0.28125 0.9375zm3.9335938 -2.078125l1.0 0l0 0.578125q0.546875 -0.671875 1.296875 -0.671875q0.40625 0 0.6875 0.171875q0.296875 0.15625 0.484375 0.5q0.28125 -0.34375 0.59375 -0.5q0.3125 -0.171875 0.671875 -0.171875q0.453125 0 0.765625 0.1875q0.328125 0.1875 0.484375 0.546875q0.109375 0.265625 0.109375 0.859375l0 2.65625l-1.09375 0l0 -2.375q0 -0.609375 -0.109375 -0.796875q-0.15625 -0.234375 -0.46875 -0.234375q-0.234375 0 -0.4375 0.140625q-0.203125 0.140625 -0.296875 0.421875q-0.09375 0.265625 -0.09375 0.84375l0 2.0l-1.09375 0l0 -2.28125q0 -0.59375 -0.0625 -0.765625q-0.046875 -0.1875 -0.171875 -0.265625q-0.125 -0.09375 -0.34375 -0.09375q-0.25 0 -0.453125 0.140625q-0.203125 0.140625 -0.296875 0.40625q-0.078125 0.25 -0.078125 0.84375l0 2.015625l-1.09375 0l0 -4.15625zm7.1132812 0l1.0 0l0 0.578125q0.546875 -0.671875 1.296875 -0.671875q0.40625 0 0.6875 0.171875q0.296875 0.15625 0.484375 0.5q0.28125 -0.34375 0.59375 -0.5q0.3125 -0.171875 0.671875 -0.171875q0.453125 0 0.765625 0.1875q0.328125 0.1875 0.484375 0.546875q0.109375 0.265625 0.109375 0.859375l0 2.65625l-1.09375 0l0 -2.375q0 -0.609375 -0.109375 -0.796875q-0.15625 -0.234375 -0.46875 -0.234375q-0.234375 0 -0.4375 0.140625q-0.203125 0.140625 -0.296875 0.421875q-0.09375 0.265625 -0.09375 0.84375l0 2.0l-1.09375 0l0 -2.28125q0 -0.59375 -0.0625 -0.765625q-0.046875 -0.1875 -0.171875 -0.265625q-0.125 -0.09375 -0.34375 -0.09375q-0.25 0 -0.453125 0.140625q-0.203125 0.140625 -0.296875 0.40625q-0.078125 0.25 -0.078125 0.84375l0 2.015625l-1.09375 0l0 -4.15625zm8.003906 1.265625l-0.984375 -0.171875q0.15625 -0.609375 0.5625 -0.890625q0.421875 -0.296875 1.234375 -0.296875q0.734375 0 1.09375 0.1875q0.359375 0.171875 0.5 0.4375q0.140625 0.265625 0.140625 0.984375l0 1.28125q0 0.546875 0.046875 0.8125q0.046875 0.25 0.203125 0.546875l-1.09375 0q-0.046875 -0.109375 -0.109375 -0.328125q-0.015625 -0.09375 -0.03125 -0.125q-0.28125 0.265625 -0.609375 0.40625q-0.3125 0.140625 -0.671875 0.140625q-0.640625 0 -1.015625 -0.34375q-0.375 -0.359375 -0.375 -0.890625q0 -0.34375 0.171875 -0.609375q0.171875 -0.28125 0.46875 -0.421875q0.3125 -0.15625 0.875 -0.265625q0.765625 -0.140625 1.0625 -0.265625l0 -0.109375q0 -0.328125 -0.15625 -0.453125q-0.15625 -0.140625 -0.578125 -0.140625q-0.296875 0 -0.46875 0.125q-0.15625 0.109375 -0.265625 0.390625zm1.46875 0.890625q-0.203125 0.078125 -0.671875 0.171875q-0.453125 0.09375 -0.59375 0.1875q-0.203125 0.15625 -0.203125 0.390625q0 0.234375 0.171875 0.40625q0.171875 0.15625 0.4375 0.15625q0.296875 0 0.5625 -0.1875q0.203125 -0.15625 0.265625 -0.359375q0.03125 -0.140625 0.03125 -0.546875l0 -0.21875zm5.9335938 2.0l-1.09375 0l0 -2.125q0 -0.671875 -0.078125 -0.859375q-0.0625 -0.203125 -0.21875 -0.3125q-0.15625 -0.109375 -0.375 -0.109375q-0.296875 0 -0.53125 0.15625q-0.21875 0.15625 -0.296875 0.421875q-0.078125 0.25 -0.078125 0.953125l0 1.875l-1.109375 0l0 -4.15625l1.03125 0l0 0.609375q0.53125 -0.703125 1.359375 -0.703125q0.359375 0 0.65625 0.140625q0.3125 0.125 0.46875 0.328125q0.15625 0.203125 0.203125 0.46875q0.0625 0.25 0.0625 0.734375l0 2.578125zm4.9179688 0l-1.015625 0l0 -0.609375q-0.25 0.359375 -0.59375 0.53125q-0.34375 0.171875 -0.703125 0.171875q-0.71875 0 -1.234375 -0.578125q-0.5 -0.578125 -0.5 -1.609375q0 -1.046875 0.5 -1.59375q0.5 -0.5625 1.25 -0.5625q0.703125 0 1.203125 0.578125l0 -2.0624962l1.09375 0l0 5.734371zm-2.921875 -2.171875q0 0.671875 0.1875 0.96875q0.265625 0.421875 0.734375 0.421875q0.375 0 0.640625 -0.3125q0.265625 -0.328125 0.265625 -0.96875q0 -0.71875 -0.265625 -1.03125q-0.25 -0.3125 -0.640625 -0.3125q-0.390625 0 -0.65625 0.3125q-0.265625 0.3125 -0.265625 0.921875z" fill-rule="nonzero"/><path fill="#000000" d="m303.42212 77.719055l1.125 -0.109375q0.09375 0.5625 0.40625 0.828125q0.3125 0.265625 0.84375 0.265625q0.546875 0 0.828125 -0.234375q0.296875 -0.234375 0.296875 -0.5625q0 -0.203125 -0.125 -0.34375q-0.125 -0.140625 -0.421875 -0.25q-0.203125 -0.0625 -0.921875 -0.25q-0.921875 -0.21875 -1.296875 -0.5625q-0.53125 -0.46875 -0.53125 -1.15625q0 -0.4375 0.25 -0.8125q0.25 -0.375 0.703125 -0.578125q0.46875 -0.203125 1.140625 -0.203125q1.078125 0 1.609375 0.484375q0.546875 0.46875 0.578125 1.25l-1.15625 0.046875q-0.078125 -0.4375 -0.328125 -0.625q-0.234375 -0.203125 -0.71875 -0.203125q-0.5 0 -0.796875 0.21875q-0.171875 0.125 -0.171875 0.34375q0 0.203125 0.171875 0.359375q0.21875 0.171875 1.0625 0.375q0.84375 0.203125 1.234375 0.421875q0.40625 0.203125 0.640625 0.578125q0.234375 0.359375 0.234375 0.90625q0 0.5 -0.28125 0.9375q-0.265625 0.421875 -0.765625 0.640625q-0.5 0.203125 -1.25 0.203125q-1.09375 0 -1.671875 -0.5q-0.578125 -0.515625 -0.6875 -1.46875zm7.5234375 -2.296875l0 0.875l-0.75 0l0 1.671875q0 0.515625 0.015625 0.609375q0.015625 0.078125 0.09375 0.140625q0.078125 0.046875 0.1875 0.046875q0.15625 0 0.4375 -0.109375l0.09375 0.84375q-0.375 0.171875 -0.859375 0.171875q-0.296875 0 -0.546875 -0.09375q-0.234375 -0.109375 -0.34375 -0.265625q-0.109375 -0.15625 -0.15625 -0.421875q-0.03125 -0.203125 -0.03125 -0.78125l0 -1.8125l-0.5 0l0 -0.875l0.5 0l0 -0.8125l1.109375 -0.640625l0 1.453125l0.75 0zm1.5703125 1.265625l-0.984375 -0.171875q0.15625 -0.609375 0.5625 -0.890625q0.421875 -0.296875 1.234375 -0.296875q0.734375 0 1.09375 0.1875q0.359375 0.171875 0.5 0.4375q0.140625 0.265625 0.140625 0.984375l0 1.28125q0 0.546875 0.046875 0.8125q0.046875 0.25 0.203125 0.546875l-1.09375 0q-0.046875 -0.109375 -0.109375 -0.328125q-0.015625 -0.09375 -0.03125 -0.125q-0.28125 0.265625 -0.609375 0.40625q-0.3125 0.140625 -0.671875 0.140625q-0.640625 0 -1.015625 -0.34375q-0.375 -0.359375 -0.375 -0.890625q0 -0.34375 0.171875 -0.609375q0.171875 -0.28125 0.46875 -0.421875q0.3125 -0.15625 0.875 -0.265625q0.765625 -0.140625 1.0625 -0.265625l0 -0.109375q0 -0.328125 -0.15625 -0.453125q-0.15625 -0.140625 -0.578125 -0.140625q-0.296875 0 -0.46875 0.125q-0.15625 0.109375 -0.265625 0.390625zm1.46875 0.890625q-0.203125 0.078125 -0.671875 0.171875q-0.453125 0.09375 -0.59375 0.1875q-0.203125 0.15625 -0.203125 0.390625q0 0.234375 0.171875 0.40625q0.171875 0.15625 0.4375 0.15625q0.296875 0 0.5625 -0.1875q0.203125 -0.15625 0.265625 -0.359375q0.03125 -0.140625 0.03125 -0.546875l0 -0.21875zm2.0898438 -2.15625l1.0 0l0 0.578125q0.546875 -0.671875 1.296875 -0.671875q0.40625 0 0.6875 0.171875q0.296875 0.15625 0.484375 0.5q0.28125 -0.34375 0.59375 -0.5q0.3125 -0.171875 0.671875 -0.171875q0.453125 0 0.765625 0.1875q0.328125 0.1875 0.484375 0.546875q0.109375 0.265625 0.109375 0.859375l0 2.65625l-1.09375 0l0 -2.375q0 -0.609375 -0.109375 -0.796875q-0.15625 -0.234375 -0.46875 -0.234375q-0.234375 0 -0.4375 0.140625q-0.203125 0.140625 -0.296875 0.421875q-0.09375 0.265625 -0.09375 0.84375l0 2.0l-1.09375 0l0 -2.28125q0 -0.59375 -0.0625 -0.765625q-0.046875 -0.1875 -0.171875 -0.265625q-0.125 -0.09375 -0.34375 -0.09375q-0.25 0 -0.453125 0.140625q-0.203125 0.140625 -0.296875 0.40625q-0.078125 0.25 -0.078125 0.84375l0 2.015625l-1.09375 0l0 -4.15625zm7.1601562 0l1.015625 0l0 0.609375q0.203125 -0.3125 0.546875 -0.5q0.34375 -0.203125 0.75 -0.203125q0.71875 0 1.21875 0.578125q0.515625 0.5625 0.515625 1.578125q0 1.03125 -0.515625 1.609375q-0.5 0.578125 -1.21875 0.578125q-0.34375 0 -0.625 -0.140625q-0.28125 -0.140625 -0.59375 -0.46875l0 2.09375l-1.09375 0l0 -5.734375zm1.078125 2.015625q0 0.6875 0.28125 1.03125q0.28125 0.328125 0.671875 0.328125q0.390625 0 0.640625 -0.296875q0.25 -0.3125 0.25 -1.015625q0 -0.65625 -0.265625 -0.96875q-0.25 -0.3125 -0.640625 -0.3125q-0.40625 0 -0.671875 0.3125q-0.265625 0.3125 -0.265625 0.921875zm6.2460938 0.8125l1.09375 0.1875q-0.21875 0.609375 -0.671875 0.921875q-0.453125 0.3125 -1.140625 0.3125q-1.078125 0 -1.59375 -0.703125q-0.421875 -0.578125 -0.421875 -1.4375q0 -1.03125 0.53125 -1.609375q0.546875 -0.59375 1.375 -0.59375q0.921875 0 1.453125 0.625q0.546875 0.609375 0.515625 1.859375l-2.75 0q0.015625 0.5 0.265625 0.765625q0.265625 0.265625 0.640625 0.265625q0.25 0 0.421875 -0.140625q0.1875 -0.140625 0.28125 -0.453125zm0.0625 -1.109375q-0.015625 -0.46875 -0.25 -0.71875q-0.234375 -0.25 -0.578125 -0.25q-0.359375 0 -0.59375 0.265625q-0.234375 0.265625 -0.21875 0.703125l1.640625 0zm5.7773438 2.4375l-1.015625 0l0 -0.609375q-0.25 0.359375 -0.59375 0.53125q-0.34375 0.171875 -0.703125 0.171875q-0.71875 0 -1.234375 -0.578125q-0.5 -0.578125 -0.5 -1.609375q0 -1.046875 0.5 -1.59375q0.5 -0.5625 1.25 -0.5625q0.703125 0 1.203125 0.578125l0 -2.0625l1.09375 0l0 5.734375zm-2.921875 -2.171875q0 0.671875 0.1875 0.96875q0.265625 0.421875 0.734375 0.421875q0.375 0 0.640625 -0.3125q0.265625 -0.328125 0.265625 -0.96875q0 -0.71875 -0.265625 -1.03125q-0.25 -0.3125 -0.640625 -0.3125q-0.390625 0 -0.65625 0.3125q-0.265625 0.3125 -0.265625 0.921875zm4.0117188 2.171875l0 -1.09375l1.09375 0l0 1.09375l-1.09375 0zm2.1445312 -4.15625l1.0 0l0 0.578125q0.546875 -0.671875 1.296875 -0.671875q0.40625 0 0.6875 0.171875q0.296875 0.15625 0.484375 0.5q0.28125 -0.34375 0.59375 -0.5q0.3125 -0.171875 0.671875 -0.171875q0.453125 0 0.765625 0.1875q0.328125 0.1875 0.484375 0.546875q0.109375 0.265625 0.109375 0.859375l0 2.65625l-1.09375 0l0 -2.375q0 -0.609375 -0.109375 -0.796875q-0.15625 -0.234375 -0.46875 -0.234375q-0.234375 0 -0.4375 0.140625q-0.203125 0.140625 -0.296875 0.421875q-0.09375 0.265625 -0.09375 0.84375l0 2.0l-1.09375 0l0 -2.28125q0 -0.59375 -0.0625 -0.765625q-0.046875 -0.1875 -0.171875 -0.265625q-0.125 -0.09375 -0.34375 -0.09375q-0.25 0 -0.453125 0.140625q-0.203125 0.140625 -0.296875 0.40625q-0.078125 0.25 -0.078125 0.84375l0 2.015625l-1.09375 0l0 -4.15625zm6.8007812 2.96875l1.109375 -0.171875q0.0625 0.328125 0.28125 0.5q0.21875 0.15625 0.59375 0.15625q0.4375 0 0.640625 -0.15625q0.15625 -0.109375 0.15625 -0.296875q0 -0.125 -0.078125 -0.203125q-0.09375 -0.078125 -0.375 -0.140625q-1.328125 -0.296875 -1.6875 -0.53125q-0.484375 -0.34375 -0.484375 -0.9375q0 -0.546875 0.421875 -0.90625q0.421875 -0.375 1.328125 -0.375q0.84375 0 1.25 0.28125q0.421875 0.28125 0.578125 0.828125l-1.03125 0.1875q-0.0625 -0.25 -0.25 -0.375q-0.1875 -0.125 -0.53125 -0.125q-0.4375 0 -0.625 0.125q-0.125 0.078125 -0.125 0.21875q0 0.109375 0.109375 0.203125q0.15625 0.109375 1.03125 0.3125q0.875 0.1875 1.21875 0.484375q0.34375 0.28125 0.34375 0.8125q0 0.5625 -0.484375 0.984375q-0.46875 0.40625 -1.40625 0.40625q-0.84375 0 -1.34375 -0.34375q-0.484375 -0.34375 -0.640625 -0.9375zm4.7304688 1.46875l1.265625 0.140625q0.03125 0.21875 0.140625 0.3125q0.15625 0.109375 0.484375 0.109375q0.4375 0 0.65625 -0.125q0.140625 -0.09375 0.21875 -0.28125q0.046875 -0.140625 0.046875 -0.5l0 -0.609375q-0.5 0.671875 -1.25 0.671875q-0.828125 0 -1.3125 -0.703125q-0.390625 -0.5625 -0.390625 -1.390625q0 -1.046875 0.5 -1.59375q0.5 -0.5625 1.25 -0.5625q0.765625 0 1.265625 0.6875l0 -0.59375l1.03125 0l0 3.734375q0 0.734375 -0.125 1.09375q-0.109375 0.359375 -0.328125 0.5625q-0.21875 0.21875 -0.59375 0.328125q-0.359375 0.125 -0.921875 0.125q-1.046875 0 -1.5 -0.359375q-0.4375 -0.359375 -0.4375 -0.921875q0 -0.046875 0 -0.125zm0.984375 -2.4375q0 0.65625 0.25 0.96875q0.265625 0.296875 0.640625 0.296875q0.40625 0 0.671875 -0.3125q0.28125 -0.3125 0.28125 -0.9375q0 -0.640625 -0.265625 -0.953125q-0.265625 -0.3125 -0.671875 -0.3125q-0.390625 0 -0.65625 0.3125q-0.25 0.296875 -0.25 0.9375z" fill-rule="nonzero"/><path fill="#000000" fill-opacity="0.0" d="m498.0438 161.14096l0 -44.44555" fill-rule="evenodd"/><path stroke="#000000" stroke-width="1.0" stroke-linejoin="round" stroke-linecap="butt" d="m498.0438 161.14096l0 -38.44555" fill-rule="evenodd"/><path fill="#000000" stroke="#000000" stroke-width="1.0" stroke-linecap="butt" d="m499.69553 122.69541l-1.6517334 -4.5380936l-1.6517334 4.5380936z" fill-rule="evenodd"/><path fill="#000000" fill-opacity="0.0" d="m444.1078 161.14096l0 -44.44555" fill-rule="evenodd"/><path stroke="#000000" stroke-width="1.0" stroke-linejoin="round" stroke-linecap="butt" d="m444.1078 161.14096l0 -38.44555" fill-rule="evenodd"/><path fill="#000000" stroke="#000000" stroke-width="1.0" stroke-linecap="butt" d="m445.75952 122.69541l-1.6517334 -4.5380936l-1.6517334 4.5380936z" fill-rule="evenodd"/><path fill="#000000" fill-opacity="0.0" d="m133.74858 121.03194l158.32552 0l0 34.848633l-158.32552 0z" fill-rule="evenodd"/><path fill="#000000" d="m141.23296 129.5557l0 0.875l-0.75 0l0 1.671875q0 0.515625 0.015625 0.609375q0.015625 0.078125 0.09375 0.140625q0.078125 0.046875 0.1875 0.046875q0.15625 0 0.4375 -0.109375l0.09375 0.84375q-0.375 0.171875 -0.859375 0.171875q-0.296875 0 -0.546875 -0.09375q-0.234375 -0.109375 -0.34375 -0.265625q-0.109375 -0.15625 -0.15625 -0.421875q-0.03125 -0.203125 -0.03125 -0.78125l0 -1.8125l-0.5 0l0 -0.875l0.5 0l0 -0.8125l1.109375 -0.640625l0 1.453125l0.75 0zm0.2734375 0l0.609375 0l0 -0.3125q0 -0.515625 0.109375 -0.765625q0.109375 -0.265625 0.40625 -0.421875q0.3125 -0.17188263 0.765625 -0.17188263q0.46875 0 0.921875 0.14063263l-0.15625 0.765625q-0.265625 -0.0625 -0.5 -0.0625q-0.234375 0 -0.34375 0.109375q-0.109375 0.109375 -0.109375 0.4375l0 0.28125l0.828125 0l0 0.875l-0.828125 0l0 3.28125l-1.09375 0l0 -3.28125l-0.609375 0l0 -0.875zm7.1835938 5.84375l-0.75 0q-0.59375 -0.90625 -0.90625 -1.875q-0.3125 -0.984375 -0.3125 -1.890625q0 -1.125 0.390625 -2.140625q0.328125 -0.875 0.84375 -1.6093826l0.75 0q-0.53125 1.1875076 -0.734375 2.0156326q-0.203125 0.828125 -0.203125 1.765625q0 0.640625 0.109375 1.3125q0.125 0.671875 0.34375 1.28125q0.125 0.390625 0.46875 1.140625zm0.8046875 -1.6875l0 -5.7343826l1.09375 0l0 2.0625076q0.515625 -0.578125 1.203125 -0.578125q0.765625 0 1.25 0.5625q0.5 0.546875 0.5 1.5625q0 1.0625 -0.515625 1.640625q-0.5 0.578125 -1.21875 0.578125q-0.359375 0 -0.703125 -0.171875q-0.34375 -0.1875 -0.59375 -0.53125l0 0.609375l-1.015625 0zm1.09375 -2.171875q0 0.65625 0.203125 0.953125q0.28125 0.4375 0.75 0.4375q0.359375 0 0.609375 -0.296875q0.265625 -0.3125 0.265625 -0.984375q0 -0.71875 -0.265625 -1.03125q-0.25 -0.3125 -0.65625 -0.3125q-0.390625 0 -0.65625 0.3125q-0.25 0.296875 -0.25 0.921875zm4.6523438 -0.71875l-0.984375 -0.171875q0.15625 -0.609375 0.5625 -0.890625q0.421875 -0.296875 1.234375 -0.296875q0.734375 0 1.09375 0.1875q0.359375 0.171875 0.5 0.4375q0.140625 0.265625 0.140625 0.984375l0 1.28125q0 0.546875 0.046875 0.8125q0.046875 0.25 0.203125 0.546875l-1.09375 0q-0.046875 -0.109375 -0.109375 -0.328125q-0.015625 -0.09375 -0.03125 -0.125q-0.28125 0.265625 -0.609375 0.40625q-0.3125 0.140625 -0.671875 0.140625q-0.640625 0 -1.015625 -0.34375q-0.375 -0.359375 -0.375 -0.890625q0 -0.34375 0.171875 -0.609375q0.171875 -0.28125 0.46875 -0.421875q0.3125 -0.15625 0.875 -0.265625q0.765625 -0.140625 1.0625 -0.265625l0 -0.109375q0 -0.328125 -0.15625 -0.453125q-0.15625 -0.140625 -0.578125 -0.140625q-0.296875 0 -0.46875 0.125q-0.15625 0.109375 -0.265625 0.390625zm1.46875 0.890625q-0.203125 0.078125 -0.671875 0.171875q-0.453125 0.09375 -0.59375 0.1875q-0.203125 0.15625 -0.203125 0.390625q0 0.234375 0.171875 0.40625q0.171875 0.15625 0.4375 0.15625q0.296875 0 0.5625 -0.1875q0.203125 -0.15625 0.265625 -0.359375q0.03125 -0.140625 0.03125 -0.546875l0 -0.21875zm1.7773438 0.8125l1.109375 -0.171875q0.0625 0.328125 0.28125 0.5q0.21875 0.15625 0.59375 0.15625q0.4375 0 0.640625 -0.15625q0.15625 -0.109375 0.15625 -0.296875q0 -0.125 -0.078125 -0.203125q-0.09375 -0.078125 -0.375 -0.140625q-1.328125 -0.296875 -1.6875 -0.53125q-0.484375 -0.34375 -0.484375 -0.9375q0 -0.546875 0.421875 -0.90625q0.421875 -0.375 1.328125 -0.375q0.84375 0 1.25 0.28125q0.421875 0.28125 0.578125 0.828125l-1.03125 0.1875q-0.0625 -0.25 -0.25 -0.375q-0.1875 -0.125 -0.53125 -0.125q-0.4375 0 -0.625 0.125q-0.125 0.078125 -0.125 0.21875q0 0.109375 0.109375 0.203125q0.15625 0.109375 1.03125 0.3125q0.875 0.1875 1.21875 0.484375q0.34375 0.28125 0.34375 0.8125q0 0.5625 -0.484375 0.984375q-0.46875 0.40625 -1.40625 0.40625q-0.84375 0 -1.34375 -0.34375q-0.484375 -0.34375 -0.640625 -0.9375zm7.2460938 -0.140625l1.09375 0.1875q-0.21875 0.609375 -0.671875 0.921875q-0.453125 0.3125 -1.140625 0.3125q-1.078125 0 -1.59375 -0.703125q-0.421875 -0.578125 -0.421875 -1.4375q0 -1.03125 0.53125 -1.609375q0.546875 -0.59375 1.375 -0.59375q0.921875 0 1.453125 0.625q0.546875 0.609375 0.515625 1.859375l-2.75 0q0.015625 0.5 0.265625 0.765625q0.265625 0.265625 0.640625 0.265625q0.25 0 0.421875 -0.140625q0.1875 -0.140625 0.28125 -0.453125zm0.0625 -1.109375q-0.015625 -0.46875 -0.25 -0.71875q-0.234375 -0.25 -0.578125 -0.25q-0.359375 0 -0.59375 0.265625q-0.234375 0.265625 -0.21875 0.703125l1.640625 0zm1.3242188 4.015625l0 -0.703125l4.5625 0l0 0.703125l-4.5625 0zm5.1054688 -1.578125l0 -5.7343826l1.09375 0l0 5.7343826l-1.09375 0zm2.2226562 -4.71875l0 -1.0156326l1.09375 0l0 1.0156326l-1.09375 0zm0 4.71875l0 -4.15625l1.09375 0l0 4.15625l-1.09375 0zm5.9882812 0l-1.09375 0l0 -2.125q0 -0.671875 -0.078125 -0.859375q-0.0625 -0.203125 -0.21875 -0.3125q-0.15625 -0.109375 -0.375 -0.109375q-0.296875 0 -0.53125 0.15625q-0.21875 0.15625 -0.296875 0.421875q-0.078125 0.25 -0.078125 0.953125l0 1.875l-1.109375 0l0 -4.15625l1.03125 0l0 0.609375q0.53125 -0.703125 1.359375 -0.703125q0.359375 0 0.65625 0.140625q0.3125 0.125 0.46875 0.328125q0.15625 0.203125 0.203125 0.46875q0.0625 0.25 0.0625 0.734375l0 2.578125zm1.0742188 0l0 -5.7343826l1.109375 0l0 3.0468826l1.28125 -1.46875l1.34375 0l-1.40625 1.515625l1.515625 2.640625l-1.1875 0l-1.046875 -1.859375l-0.5 0.53125l0 1.328125l-1.109375 0zm4.1835938 1.6875q0.328125 -0.703125 0.453125 -1.078125q0.140625 -0.359375 0.25 -0.84375q0.125 -0.484375 0.171875 -0.921875q0.0625 -0.4375 0.0625 -0.890625q0 -0.9375 -0.203125 -1.765625q-0.203125 -0.828125 -0.734375 -2.0156326l0.75 0q0.578125 0.8437576 0.90625 1.7812576q0.328125 0.9375 0.328125 1.90625q0 0.828125 -0.25 1.75q-0.296875 1.0625 -0.96875 2.078125l-0.765625 0z" fill-rule="nonzero"/><path fill="#000000" fill-opacity="0.0" d="m133.74928 163.22942l0 -49.546898" fill-rule="evenodd"/><path stroke="#000000" stroke-width="1.0" stroke-linejoin="round" stroke-linecap="butt" d="m133.74928 163.22942l0 -43.546898" fill-rule="evenodd"/><path fill="#000000" stroke="#000000" stroke-width="1.0" stroke-linecap="butt" d="m135.40102 119.68252l-1.6517334 -4.538101l-1.6517334 4.538101z" fill-rule="evenodd"/><path fill="#000000" fill-opacity="0.0" d="m0.009124231 69.60198l94.748985 0l0 33.350105l-94.748985 0z" fill-rule="evenodd"/><path fill="#000000" d="m6.8841243 82.28198l0 -4.765625l-1.703125 0l0 -0.96875l4.5468745 0l0 0.96875l-1.6875 0l0 4.765625l-1.1562495 0zm3.7617183 0l-1.3125 -4.15625l1.078125 0l0.765625 2.71875l0.71875 -2.71875l1.0625 0l0.6875 2.71875l0.796875 -2.71875l1.078125 0l-1.328125 4.15625l-1.0625 0l-0.703125 -2.671875l-0.703125 2.671875l-1.078125 0zm5.457032 -4.71875l0 -1.015625l1.09375 0l0 1.015625l-1.09375 0zm0 4.71875l0 -4.15625l1.09375 0l0 4.15625l-1.09375 0zm1.8320312 -1.1875l1.109375 -0.171875q0.0625 0.328125 0.28125 0.5q0.21875 0.15625 0.59375 0.15625q0.4375 0 0.640625 -0.15625q0.15625 -0.109375 0.15625 -0.296875q0 -0.125 -0.078125 -0.203125q-0.09375 -0.078125 -0.375 -0.140625q-1.328125 -0.296875 -1.6875 -0.53125q-0.484375 -0.34375 -0.484375 -0.9375q0 -0.546875 0.421875 -0.90625q0.421875 -0.375 1.328125 -0.375q0.84375 0 1.25 0.28125q0.421875 0.28125 0.578125 0.828125l-1.03125 0.1875q-0.0625 -0.25 -0.25 -0.375q-0.1875 -0.125 -0.53125 -0.125q-0.4375 0 -0.625 0.125q-0.125 0.078125 -0.125 0.21875q0 0.109375 0.109375 0.203125q0.15625 0.109375 1.03125 0.3125q0.875 0.1875 1.21875 0.484375q0.34375 0.28125 0.34375 0.8125q0 0.5625 -0.484375 0.984375q-0.46875 0.40625 -1.40625 0.40625q-0.84375 0 -1.34375 -0.34375q-0.484375 -0.34375 -0.640625 -0.9375zm6.7460938 -2.96875l0 0.875l-0.75 0l0 1.671875q0 0.515625 0.015625 0.609375q0.015625 0.078125 0.09375 0.140625q0.078125 0.046875 0.1875 0.046875q0.15625 0 0.4375 -0.109375l0.09375 0.84375q-0.375 0.171875 -0.859375 0.171875q-0.296875 0 -0.546875 -0.09375q-0.234375 -0.109375 -0.34375 -0.265625q-0.109375 -0.15625 -0.15625 -0.421875q-0.03125 -0.203125 -0.03125 -0.78125l0 -1.8125l-0.5 0l0 -0.875l0.5 0l0 -0.8125l1.109375 -0.640625l0 1.453125l0.75 0zm0.4765625 2.296875l1.125 -0.109375q0.09375 0.5625 0.40625 0.828125q0.3125 0.265625 0.84375 0.265625q0.546875 0 0.828125 -0.234375q0.296875 -0.234375 0.296875 -0.5625q0 -0.203125 -0.125 -0.34375q-0.125 -0.140625 -0.421875 -0.25q-0.203125 -0.0625 -0.921875 -0.25q-0.921875 -0.21875 -1.296875 -0.5625q-0.53125 -0.46875 -0.53125 -1.15625q0 -0.4375 0.25 -0.8125q0.25 -0.375 0.703125 -0.578125q0.46875 -0.203125 1.140625 -0.203125q1.078125 0 1.609375 0.484375q0.546875 0.46875 0.578125 1.25l-1.15625 0.046875q-0.078125 -0.4375 -0.328125 -0.625q-0.234375 -0.203125 -0.71875 -0.203125q-0.5 0 -0.796875 0.21875q-0.171875 0.125 -0.171875 0.34375q0 0.203125 0.171875 0.359375q0.21875 0.171875 1.0625 0.375q0.84375 0.203125 1.234375 0.421875q0.40625 0.203125 0.640625 0.578125q0.234375 0.359375 0.234375 0.90625q0 0.5 -0.28125 0.9375q-0.265625 0.421875 -0.765625 0.640625q-0.5 0.203125 -1.25 0.203125q-1.09375 0 -1.671875 -0.5q-0.578125 -0.515625 -0.6875 -1.46875zm7.5234375 -2.296875l0 0.875l-0.75 0l0 1.671875q0 0.515625 0.015625 0.609375q0.015625 0.078125 0.09375 0.140625q0.078125 0.046875 0.1875 0.046875q0.15625 0 0.4375 -0.109375l0.09375 0.84375q-0.375 0.171875 -0.859375 0.171875q-0.296875 0 -0.546875 -0.09375q-0.234375 -0.109375 -0.34375 -0.265625q-0.109375 -0.15625 -0.15625 -0.421875q-0.03125 -0.203125 -0.03125 -0.78125l0 -1.8125l-0.5 0l0 -0.875l0.5 0l0 -0.8125l1.109375 -0.640625l0 1.453125l0.75 0zm1.5703125 1.265625l-0.984375 -0.171875q0.15625 -0.609375 0.5625 -0.890625q0.421875 -0.296875 1.234375 -0.296875q0.734375 0 1.09375 0.1875q0.359375 0.171875 0.5 0.4375q0.140625 0.265625 0.140625 0.984375l0 1.28125q0 0.546875 0.046875 0.8125q0.046875 0.25 0.203125 0.546875l-1.09375 0q-0.046875 -0.109375 -0.109375 -0.328125q-0.015625 -0.09375 -0.03125 -0.125q-0.28125 0.265625 -0.609375 0.40625q-0.3125 0.140625 -0.671875 0.140625q-0.640625 0 -1.015625 -0.34375q-0.375 -0.359375 -0.375 -0.890625q0 -0.34375 0.171875 -0.609375q0.171875 -0.28125 0.46875 -0.421875q0.3125 -0.15625 0.875 -0.265625q0.765625 -0.140625 1.0625 -0.265625l0 -0.109375q0 -0.328125 -0.15625 -0.453125q-0.15625 -0.140625 -0.578125 -0.140625q-0.296875 0 -0.46875 0.125q-0.15625 0.109375 -0.265625 0.390625zm1.46875 0.890625q-0.203125 0.078125 -0.671875 0.171875q-0.453125 0.09375 -0.59375 0.1875q-0.203125 0.15625 -0.203125 0.390625q0 0.234375 0.171875 0.40625q0.171875 0.15625 0.4375 0.15625q0.296875 0 0.5625 -0.1875q0.203125 -0.15625 0.265625 -0.359375q0.03125 -0.140625 0.03125 -0.546875l0 -0.21875zm2.0898438 -2.15625l1.0 0l0 0.578125q0.546875 -0.671875 1.296875 -0.671875q0.40625 0 0.6875 0.171875q0.296875 0.15625 0.484375 0.5q0.28125 -0.34375 0.59375 -0.5q0.3125 -0.171875 0.671875 -0.171875q0.453125 0 0.765625 0.1875q0.328125 0.1875 0.484375 0.546875q0.109375 0.265625 0.109375 0.859375l0 2.65625l-1.09375 0l0 -2.375q0 -0.609375 -0.109375 -0.796875q-0.15625 -0.234375 -0.46875 -0.234375q-0.234375 0 -0.4375 0.140625q-0.203125 0.140625 -0.296875 0.421875q-0.09375 0.265625 -0.09375 0.84375l0 2.0l-1.09375 0l0 -2.28125q0 -0.59375 -0.0625 -0.765625q-0.046875 -0.1875 -0.171875 -0.265625q-0.125 -0.09375 -0.34375 -0.09375q-0.25 0 -0.453125 0.140625q-0.203125 0.140625 -0.296875 0.40625q-0.078125 0.25 -0.078125 0.84375l0 2.015625l-1.09375 0l0 -4.15625zm7.1601562 0l1.015625 0l0 0.609375q0.203125 -0.3125 0.546875 -0.5q0.34375 -0.203125 0.75 -0.203125q0.71875 0 1.21875 0.578125q0.515625 0.5625 0.515625 1.578125q0 1.03125 -0.515625 1.609375q-0.5 0.578125 -1.21875 0.578125q-0.34375 0 -0.625 -0.140625q-0.28125 -0.140625 -0.59375 -0.46875l0 2.09375l-1.09375 0l0 -5.734375zm1.078125 2.015625q0 0.6875 0.28125 1.03125q0.28125 0.328125 0.671875 0.328125q0.390625 0 0.640625 -0.296875q0.25 -0.3125 0.25 -1.015625q0 -0.65625 -0.265625 -0.96875q-0.25 -0.3125 -0.640625 -0.3125q-0.40625 0 -0.671875 0.3125q-0.265625 0.3125 -0.265625 0.921875zm6.2460938 0.8125l1.09375 0.1875q-0.21875 0.609375 -0.671875 0.921875q-0.453125 0.3125 -1.140625 0.3125q-1.078125 0 -1.59375 -0.703125q-0.421875 -0.578125 -0.421875 -1.4375q0 -1.03125 0.53125 -1.609375q0.546875 -0.59375 1.375 -0.59375q0.921875 0 1.453125 0.625q0.546875 0.609375 0.515625 1.859375l-2.75 0q0.015625 0.5 0.265625 0.765625q0.265625 0.265625 0.640625 0.265625q0.25 0 0.421875 -0.140625q0.1875 -0.140625 0.28125 -0.453125zm0.0625 -1.109375q-0.015625 -0.46875 -0.25 -0.71875q-0.234375 -0.25 -0.578125 -0.25q-0.359375 0 -0.59375 0.265625q-0.234375 0.265625 -0.21875 0.703125l1.640625 0zm5.7773438 2.4375l-1.015625 0l0 -0.609375q-0.25 0.359375 -0.59375 0.53125q-0.34375 0.171875 -0.703125 0.171875q-0.71875 0 -1.234375 -0.578125q-0.5 -0.578125 -0.5 -1.609375q0 -1.046875 0.5 -1.59375q0.5 -0.5625 1.25 -0.5625q0.703125 0 1.203125 0.578125l0 -2.0625l1.09375 0l0 5.734375zm-2.921875 -2.171875q0 0.671875 0.1875 0.96875q0.265625 0.421875 0.734375 0.421875q0.375 0 0.640625 -0.3125q0.265625 -0.328125 0.265625 -0.96875q0 -0.71875 -0.265625 -1.03125q-0.25 -0.3125 -0.640625 -0.3125q-0.390625 0 -0.65625 0.3125q-0.265625 0.3125 -0.265625 0.921875zm4.0117188 2.171875l0 -1.09375l1.09375 0l0 1.09375l-1.09375 0zm2.1445312 -4.15625l1.0 0l0 0.578125q0.546875 -0.671875 1.296875 -0.671875q0.40625 0 0.6875 0.171875q0.296875 0.15625 0.484375 0.5q0.28125 -0.34375 0.59375 -0.5q0.3125 -0.171875 0.671875 -0.171875q0.453125 0 0.765625 0.1875q0.328125 0.1875 0.484375 0.546875q0.109375 0.265625 0.109375 0.859375l0 2.65625l-1.09375 0l0 -2.375q0 -0.609375 -0.109375 -0.796875q-0.15625 -0.234375 -0.46875 -0.234375q-0.234375 0 -0.4375 0.140625q-0.203125 0.140625 -0.296875 0.421875q-0.09375 0.265625 -0.09375 0.84375l0 2.0l-1.09375 0l0 -2.28125q0 -0.59375 -0.0625 -0.765625q-0.046875 -0.1875 -0.171875 -0.265625q-0.125 -0.09375 -0.34375 -0.09375q-0.25 0 -0.453125 0.140625q-0.203125 0.140625 -0.296875 0.40625q-0.078125 0.25 -0.078125 0.84375l0 2.015625l-1.09375 0l0 -4.15625zm6.8007812 2.96875l1.109375 -0.171875q0.0625 0.328125 0.28125 0.5q0.21875 0.15625 0.59375 0.15625q0.4375 0 0.640625 -0.15625q0.15625 -0.109375 0.15625 -0.296875q0 -0.125 -0.078125 -0.203125q-0.09375 -0.078125 -0.375 -0.140625q-1.328125 -0.296875 -1.6875 -0.53125q-0.484375 -0.34375 -0.484375 -0.9375q0 -0.546875 0.421875 -0.90625q0.421875 -0.375 1.328125 -0.375q0.84375 0 1.25 0.28125q0.421875 0.28125 0.578125 0.828125l-1.03125 0.1875q-0.0625 -0.25 -0.25 -0.375q-0.1875 -0.125 -0.53125 -0.125q-0.4375 0 -0.625 0.125q-0.125 0.078125 -0.125 0.21875q0 0.109375 0.109375 0.203125q0.15625 0.109375 1.03125 0.3125q0.875 0.1875 1.21875 0.484375q0.34375 0.28125 0.34375 0.8125q0 0.5625 -0.484375 0.984375q-0.46875 0.40625 -1.40625 0.40625q-0.84375 0 -1.34375 -0.34375q-0.484375 -0.34375 -0.640625 -0.9375zm4.7304688 1.46875l1.265625 0.140625q0.03125 0.21875 0.140625 0.3125q0.15625 0.109375 0.484375 0.109375q0.4375 0 0.65625 -0.125q0.140625 -0.09375 0.21875 -0.28125q0.046875 -0.140625 0.046875 -0.5l0 -0.609375q-0.5 0.671875 -1.25 0.671875q-0.828125 0 -1.3125 -0.703125q-0.390625 -0.5625 -0.390625 -1.390625q0 -1.046875 0.5 -1.59375q0.5 -0.5625 1.25 -0.5625q0.765625 0 1.265625 0.6875l0 -0.59375l1.03125 0l0 3.734375q0 0.734375 -0.125 1.09375q-0.109375 0.359375 -0.328125 0.5625q-0.21875 0.21875 -0.59375 0.328125q-0.359375 0.125 -0.921875 0.125q-1.046875 0 -1.5 -0.359375q-0.4375 -0.359375 -0.4375 -0.921875q0 -0.046875 0 -0.125zm0.984375 -2.4375q0 0.65625 0.25 0.96875q0.265625 0.296875 0.640625 0.296875q0.40625 0 0.671875 -0.3125q0.28125 -0.3125 0.28125 -0.9375q0 -0.640625 -0.265625 -0.953125q-0.265625 -0.3125 -0.671875 -0.3125q-0.390625 0 -0.65625 0.3125q-0.25 0.296875 -0.25 0.9375z" fill-rule="nonzero"/><path fill="#000000" fill-opacity="0.0" d="m20.216482 87.21923l85.787964 0" fill-rule="evenodd"/><path stroke="#000000" stroke-width="1.0" stroke-linejoin="round" stroke-linecap="butt" d="m20.216482 87.21923l79.787964 0" fill-rule="evenodd"/><path fill="#000000" stroke="#000000" stroke-width="1.0" stroke-linecap="butt" d="m100.00445 88.870964l4.538101 -1.6517334l-4.538101 -1.6517334z" fill-rule="evenodd"/><path fill="#000000" fill-opacity="0.0" d="m2.4590137 92.64521l80.43684 0l0 33.350098l-80.43684 0z" fill-rule="evenodd"/><path fill="#000000" d="m7.755889 103.465836l1.125 -0.109375q0.09375 0.5625 0.40625 0.828125q0.3125 0.265625 0.84375 0.265625q0.546875 0 0.828125 -0.234375q0.296875 -0.234375 0.296875 -0.5625q0 -0.203125 -0.125 -0.34375q-0.125 -0.140625 -0.421875 -0.25q-0.203125 -0.0625 -0.921875 -0.25q-0.921875 -0.21875 -1.296875 -0.5625q-0.53125 -0.46875 -0.53125 -1.15625q0 -0.4375 0.25 -0.8125q0.25 -0.375 0.703125 -0.578125q0.46875 -0.203125 1.140625 -0.203125q1.078125 0 1.609375 0.484375q0.546875 0.46875 0.578125 1.25l-1.15625 0.046875q-0.078125 -0.4375 -0.328125 -0.625q-0.234375 -0.203125 -0.71875 -0.203125q-0.5 0 -0.796875 0.21875q-0.171875 0.125 -0.171875 0.34375q0 0.203125 0.171875 0.359375q0.21875 0.171875 1.0625 0.375q0.84375 0.203125 1.234375 0.421875q0.40625 0.203125 0.640625 0.578125q0.234375 0.359375 0.234375 0.90625q0 0.5 -0.28125 0.9375q-0.265625 0.421875 -0.765625 0.640625q-0.5 0.203125 -1.25 0.203125q-1.09375 0 -1.671875 -0.5q-0.578125 -0.515625 -0.6875 -1.46875zm7.5234375 -2.296875l0 0.875l-0.75 0l0 1.671875q0 0.515625 0.015625 0.609375q0.015625 0.078125 0.09375 0.140625q0.078125 0.046875 0.1875 0.046875q0.15625 0 0.4375 -0.109375l0.09375 0.84375q-0.375 0.171875 -0.859375 0.171875q-0.296875 0 -0.546875 -0.09375q-0.234375 -0.109375 -0.34375 -0.265625q-0.109375 -0.15625 -0.15625 -0.421875q-0.03125 -0.203125 -0.03125 -0.78125l0 -1.8125l-0.5 0l0 -0.875l0.5 0l0 -0.8125l1.109375 -0.640625l0 1.453125l0.75 0zm3.1640615 2.828125l1.09375 0.1875q-0.21875 0.609375 -0.671875 0.921875q-0.453125 0.3125 -1.140625 0.3125q-1.078125 0 -1.59375 -0.703125q-0.42187405 -0.578125 -0.42187405 -1.4375q0 -1.03125 0.53124905 -1.609375q0.546875 -0.59375 1.375 -0.59375q0.921875 0 1.453125 0.625q0.546875 0.609375 0.515625 1.859375l-2.75 0q0.015625 0.5 0.265625 0.765625q0.265625 0.265625 0.640625 0.265625q0.25 0 0.421875 -0.140625q0.1875 -0.140625 0.28125 -0.453125zm0.0625 -1.109375q-0.015625 -0.46875 -0.25 -0.71875q-0.234375 -0.25 -0.578125 -0.25q-0.359375 0 -0.59375 0.265625q-0.234375 0.265625 -0.21875 0.703125l1.640625 0zm4.3867188 1.109375l1.09375 0.1875q-0.21875 0.609375 -0.671875 0.921875q-0.453125 0.3125 -1.140625 0.3125q-1.078125 0 -1.59375 -0.703125q-0.421875 -0.578125 -0.421875 -1.4375q0 -1.03125 0.53125 -1.609375q0.546875 -0.59375 1.375 -0.59375q0.921875 0 1.453125 0.625q0.546875 0.609375 0.515625 1.859375l-2.75 0q0.015625 0.5 0.265625 0.765625q0.265625 0.265625 0.640625 0.265625q0.25 0 0.421875 -0.140625q0.1875 -0.140625 0.28125 -0.453125zm0.0625 -1.109375q-0.015625 -0.46875 -0.25 -0.71875q-0.234375 -0.25 -0.578125 -0.25q-0.359375 0 -0.59375 0.265625q-0.234375 0.265625 -0.21875 0.703125l1.640625 0zm3.0273438 2.4375l-1.09375 0l0 -4.15625l1.015625 0l0 0.59375q0.265625 -0.421875 0.46875 -0.546875q0.21875 -0.140625 0.484375 -0.140625q0.375 0 0.71875 0.21875l-0.34375 0.953125q-0.28125 -0.1875 -0.515625 -0.1875q-0.234375 0 -0.390625 0.140625q-0.15625 0.125 -0.25 0.453125q-0.09375 0.328125 -0.09375 1.390625l0 1.28125zm2.0664062 -4.71875l0 -1.015625l1.09375 0l0 1.015625l-1.09375 0zm0 4.71875l0 -4.15625l1.09375 0l0 4.15625l-1.09375 0zm5.988283 0l-1.09375 0l0 -2.125q0 -0.671875 -0.078125 -0.859375q-0.0625 -0.203125 -0.21875 -0.3125q-0.15625 -0.109375 -0.375 -0.109375q-0.2968769 0 -0.5312519 0.15625q-0.21875 0.15625 -0.296875 0.421875q-0.078125 0.25 -0.078125 0.953125l0 1.875l-1.109375 0l0 -4.15625l1.03125 0l0 0.609375q0.53125 -0.703125 1.3593769 -0.703125q0.359375 0 0.65625 0.140625q0.3125 0.125 0.46875 0.328125q0.15625 0.203125 0.203125 0.46875q0.0625 0.25 0.0625 0.734375l0 2.578125zm1.0117188 0.28125l1.265625 0.140625q0.03125 0.21875 0.140625 0.3125q0.15625 0.109375 0.484375 0.109375q0.4375 0 0.65625 -0.125q0.140625 -0.09375 0.21875 -0.28125q0.046875 -0.140625 0.046875 -0.5l0 -0.609375q-0.5 0.671875 -1.25 0.671875q-0.828125 0 -1.3125 -0.703125q-0.390625 -0.5625 -0.390625 -1.390625q0 -1.046875 0.5 -1.59375q0.5 -0.5625 1.25 -0.5625q0.765625 0 1.265625 0.6875l0 -0.59375l1.03125 0l0 3.734375q0 0.734375 -0.125 1.09375q-0.109375 0.359375 -0.328125 0.5625q-0.21875 0.21875 -0.59375 0.328125q-0.359375 0.125 -0.921875 0.125q-1.046875 0 -1.5 -0.359375q-0.4375 -0.359375 -0.4375 -0.921875q0 -0.046875 0 -0.125zm0.984375 -2.4375q0 0.65625 0.25 0.96875q0.265625 0.296875 0.640625 0.296875q0.40625 0 0.671875 -0.3125q0.28125 -0.3125 0.28125 -0.9375q0 -0.640625 -0.265625 -0.953125q-0.265625 -0.3125 -0.671875 -0.3125q-0.390625 0 -0.65625 0.3125q-0.25 0.296875 -0.25 0.9375zm4.0117188 2.15625l0 -1.09375l1.09375 0l0 1.09375l-1.09375 0zm2.1445312 -4.15625l1.0 0l0 0.578125q0.546875 -0.671875 1.296875 -0.671875q0.40625 0 0.6875 0.171875q0.296875 0.15625 0.484375 0.5q0.28125 -0.34375 0.59375 -0.5q0.3125 -0.171875 0.671875 -0.171875q0.453125 0 0.765625 0.1875q0.328125 0.1875 0.484375 0.546875q0.109375 0.265625 0.109375 0.859375l0 2.65625l-1.09375 0l0 -2.375q0 -0.609375 -0.109375 -0.796875q-0.15625 -0.234375 -0.46875 -0.234375q-0.234375 0 -0.4375 0.140625q-0.203125 0.140625 -0.296875 0.421875q-0.09375 0.265625 -0.09375 0.84375l0 2.0l-1.09375 0l0 -2.28125q0 -0.59375 -0.0625 -0.765625q-0.046875 -0.1875 -0.171875 -0.265625q-0.125 -0.09375 -0.34375 -0.09375q-0.25 0 -0.453125 0.140625q-0.203125 0.140625 -0.296875 0.40625q-0.078125 0.25 -0.078125 0.84375l0 2.015625l-1.09375 0l0 -4.15625zm6.8007812 2.96875l1.109375 -0.171875q0.0625 0.328125 0.28125 0.5q0.21875 0.15625 0.59375 0.15625q0.4375 0 0.640625 -0.15625q0.15625 -0.109375 0.15625 -0.296875q0 -0.125 -0.078125 -0.203125q-0.09375 -0.078125 -0.375 -0.140625q-1.328125 -0.296875 -1.6875 -0.53125q-0.484375 -0.34375 -0.484375 -0.9375q0 -0.546875 0.421875 -0.90625q0.421875 -0.375 1.328125 -0.375q0.84375 0 1.25 0.28125q0.421875 0.28125 0.578125 0.828125l-1.03125 0.1875q-0.0625 -0.25 -0.25 -0.375q-0.1875 -0.125 -0.53125 -0.125q-0.4375 0 -0.625 0.125q-0.125 0.078125 -0.125 0.21875q0 0.109375 0.109375 0.203125q0.15625 0.109375 1.03125 0.3125q0.875 0.1875 1.21875 0.484375q0.34375 0.28125 0.34375 0.8125q0 0.5625 -0.484375 0.984375q-0.46875 0.40625 -1.40625 0.40625q-0.84375 0 -1.34375 -0.34375q-0.484375 -0.34375 -0.640625 -0.9375zm4.7304688 1.46875l1.265625 0.140625q0.03125 0.21875 0.140625 0.3125q0.15625 0.109375 0.484375 0.109375q0.4375 0 0.65625 -0.125q0.140625 -0.09375 0.21875 -0.28125q0.046875 -0.140625 0.046875 -0.5l0 -0.609375q-0.5 0.671875 -1.25 0.671875q-0.828125 0 -1.3125 -0.703125q-0.390625 -0.5625 -0.390625 -1.390625q0 -1.046875 0.5 -1.59375q0.5 -0.5625 1.25 -0.5625q0.765625 0 1.265625 0.6875l0 -0.59375l1.03125 0l0 3.734375q0 0.734375 -0.125 1.09375q-0.109375 0.359375 -0.328125 0.5625q-0.21875 0.21875 -0.59375 0.328125q-0.359375 0.125 -0.921875 0.125q-1.046875 0 -1.5 -0.359375q-0.4375 -0.359375 -0.4375 -0.921875q0 -0.046875 0 -0.125zm0.984375 -2.4375q0 0.65625 0.25 0.96875q0.265625 0.296875 0.640625 0.296875q0.40625 0 0.671875 -0.3125q0.28125 -0.3125 0.28125 -0.9375q0 -0.640625 -0.265625 -0.953125q-0.265625 -0.3125 -0.671875 -0.3125q-0.390625 0 -0.65625 0.3125q-0.25 0.296875 -0.25 0.9375z" fill-rule="nonzero"/><path fill="#000000" fill-opacity="0.0" d="m20.216482 109.74224l85.787964 0" fill-rule="evenodd"/><path stroke="#000000" stroke-width="1.0" stroke-linejoin="round" stroke-linecap="butt" d="m20.216482 109.74224l79.787964 0" fill-rule="evenodd"/><path fill="#000000" stroke="#000000" stroke-width="1.0" stroke-linecap="butt" d="m100.00445 111.393974l4.538101 -1.6517334l-4.538101 -1.6517334z" fill-rule="evenodd"/><path fill="#9fc5e8" d="m107.57472 54.230972l144.7874 0l0 60.314957l-144.7874 0z" fill-rule="evenodd"/><path stroke="#666666" stroke-width="1.0" stroke-linejoin="round" stroke-linecap="butt" d="m107.57472 54.230972l144.7874 0l0 60.314957l-144.7874 0z" fill-rule="evenodd"/><path fill="#000000" d="m151.23749 81.18845l0 -7.921875l-2.84375 0l0 -1.625l7.59375 0l0 1.625l-2.828125 0l0 7.921875l-1.921875 0zm6.9838104 0l-1.828125 0l0 -6.90625l1.703125 0l0 0.984375q0.4375 -0.703125 0.78125 -0.921875q0.34375 -0.21875 0.796875 -0.21875q0.625 0 1.203125 0.34375l-0.5625 1.59375q-0.46875 -0.296875 -0.859375 -0.296875q-0.390625 0 -0.65625 0.21875q-0.265625 0.203125 -0.421875 0.765625q-0.15625 0.546875 -0.15625 2.296875l0 2.140625zm4.811783 -4.796875l-1.671875 -0.3125q0.28125 -1.0 0.96875 -1.46875q0.6875 -0.484375 2.03125 -0.484375q1.21875 0 1.8125 0.296875q0.609375 0.28125 0.84375 0.734375q0.25 0.4375 0.25 1.625l-0.015625 2.140625q0 0.90625 0.078125 1.34375q0.09375 0.421875 0.34375 0.921875l-1.8125 0q-0.078125 -0.1875 -0.171875 -0.546875q-0.046875 -0.15625 -0.078125 -0.203125q-0.46875 0.453125 -1.0 0.6875q-0.53125 0.21875 -1.140625 0.21875q-1.0625 0 -1.6875 -0.578125q-0.609375 -0.578125 -0.609375 -1.46875q0 -0.578125 0.28125 -1.03125q0.28125 -0.46875 0.78125 -0.703125q0.515625 -0.25 1.46875 -0.4375q1.28125 -0.234375 1.765625 -0.453125l0 -0.171875q0 -0.53125 -0.265625 -0.75q-0.25 -0.234375 -0.96875 -0.234375q-0.484375 0 -0.765625 0.203125q-0.265625 0.1875 -0.4375 0.671875zm2.4375 1.484375q-0.34375 0.109375 -1.109375 0.28125q-0.765625 0.15625 -1.0 0.3125q-0.359375 0.25 -0.359375 0.640625q0 0.390625 0.28125 0.671875q0.296875 0.28125 0.734375 0.28125q0.5 0 0.953125 -0.328125q0.328125 -0.25 0.4375 -0.609375q0.0625 -0.234375 0.0625 -0.890625l0 -0.359375zm3.5687256 -4.53125l0 -1.703125l1.828125 0l0 1.703125l-1.828125 0zm1.828125 0.9375l0 6.6875q0 1.328125 -0.171875 1.859375q-0.171875 0.546875 -0.671875 0.859375q-0.484375 0.3125 -1.25 0.3125q-0.265625 0 -0.59375 -0.0625q-0.3125 -0.046875 -0.671875 -0.140625l0.3125 -1.5625q0.140625 0.03125 0.25 0.046875q0.109375 0.015625 0.203125 0.015625q0.28125 0 0.453125 -0.125q0.1875 -0.125 0.25 -0.296875q0.0625 -0.15625 0.0625 -1.0l0 -6.59375l1.828125 0zm5.9061127 4.703125l1.828125 0.3125q-0.34375 1.0 -1.109375 1.53125q-0.765625 0.515625 -1.890625 0.515625q-1.8125 0 -2.671875 -1.171875q-0.6875 -0.953125 -0.6875 -2.390625q0 -1.71875 0.890625 -2.6875q0.90625 -0.96875 2.28125 -0.96875q1.546875 0 2.4375 1.015625q0.890625 1.015625 0.84375 3.125l-4.578125 0q0.015625 0.8125 0.4375 1.265625q0.421875 0.453125 1.0625 0.453125q0.421875 0 0.71875 -0.234375q0.296875 -0.234375 0.4375 -0.765625zm0.109375 -1.84375q-0.015625 -0.796875 -0.40625 -1.203125q-0.390625 -0.421875 -0.953125 -0.421875q-0.59375 0 -0.984375 0.4375q-0.390625 0.4375 -0.390625 1.1875l2.734375 0zm9.334351 -0.828125l-1.796875 0.328125q-0.09375 -0.53125 -0.421875 -0.796875q-0.328125 -0.28125 -0.828125 -0.28125q-0.6875 0 -1.09375 0.46875q-0.40625 0.46875 -0.40625 1.578125q0 1.234375 0.40625 1.75q0.421875 0.5 1.109375 0.5q0.53125 0 0.859375 -0.296875q0.328125 -0.296875 0.46875 -1.03125l1.796875 0.3125q-0.28125 1.234375 -1.078125 1.875q-0.796875 0.625 -2.125 0.625q-1.515625 0 -2.421875 -0.953125q-0.90625 -0.953125 -0.90625 -2.65625q0 -1.703125 0.90625 -2.65625q0.90625 -0.953125 2.453125 -0.953125q1.265625 0 2.0 0.546875q0.75 0.53125 1.078125 1.640625zm4.5531006 -2.03125l0 1.453125l-1.25 0l0 2.78125q0 0.84375 0.03125 0.984375q0.046875 0.140625 0.171875 0.234375q0.125 0.09375 0.3125 0.09375q0.25 0 0.734375 -0.171875l0.15625 1.421875q-0.640625 0.265625 -1.453125 0.265625q-0.484375 0 -0.890625 -0.15625q-0.390625 -0.171875 -0.578125 -0.4375q-0.1875 -0.265625 -0.265625 -0.71875q-0.046875 -0.3125 -0.046875 -1.28125l0 -3.015625l-0.84375 0l0 -1.453125l0.84375 0l0 -1.375l1.828125 -1.078125l0 2.453125l1.25 0zm0.84461975 3.359375q0 -0.921875 0.453125 -1.765625q0.453125 -0.859375 1.265625 -1.296875q0.828125 -0.453125 1.84375 -0.453125q1.5625 0 2.5625 1.015625q1.015625 1.015625 1.015625 2.578125q0 1.5625 -1.015625 2.59375q-1.015625 1.03125 -2.546875 1.03125q-0.953125 0 -1.8125 -0.421875q-0.859375 -0.4375 -1.3125 -1.265625q-0.453125 -0.828125 -0.453125 -2.015625zm1.875 0.09375q0 1.03125 0.484375 1.578125q0.5 0.546875 1.203125 0.546875q0.71875 0 1.203125 -0.546875q0.484375 -0.546875 0.484375 -1.59375q0 -1.015625 -0.484375 -1.5625q-0.484375 -0.546875 -1.203125 -0.546875q-0.703125 0 -1.203125 0.546875q-0.484375 0.546875 -0.484375 1.578125zm8.438232 3.453125l-1.828125 0l0 -6.90625l1.703125 0l0 0.984375q0.4375 -0.703125 0.78125 -0.921875q0.34375 -0.21875 0.796875 -0.21875q0.625 0 1.203125 0.34375l-0.5625 1.59375q-0.46875 -0.296875 -0.859375 -0.296875q-0.390625 0 -0.65625 0.21875q-0.265625 0.203125 -0.421875 0.765625q-0.15625 0.546875 -0.15625 2.296875l0 2.140625zm2.5774078 -6.90625l1.9375 0l1.65625 4.90625l1.609375 -4.90625l1.90625 0l-2.453125 6.640625l-0.421875 1.203125q-0.25 0.609375 -0.46875 0.921875q-0.21875 0.328125 -0.5 0.515625q-0.28125 0.203125 -0.703125 0.3125q-0.40625 0.125 -0.921875 0.125q-0.53125 0 -1.03125 -0.125l-0.171875 -1.421875q0.4375 0.078125 0.78125 0.078125q0.640625 0 0.9375 -0.375q0.3125 -0.375 0.46875 -0.953125l-2.625 -6.921875z" fill-rule="nonzero"/><path fill="#000000" d="m154.57799 90.2822l1.015625 0l0 -0.53125q0 -0.859375 0.1875 -1.28125q0.1875 -0.4375 0.671875 -0.703125q0.5 -0.28125 1.265625 -0.28125q0.78125 0 1.53125 0.234375l-0.25 1.28125q-0.4375 -0.109375 -0.84375 -0.109375q-0.390625 0 -0.5625 0.1875q-0.171875 0.1875 -0.171875 0.703125l0 0.5l1.359375 0l0 1.4375l-1.359375 0l0 5.46875l-1.828125 0l0 -5.46875l-1.015625 0l0 -1.4375zm4.8133698 3.359375q0 -0.921875 0.453125 -1.765625q0.453125 -0.859375 1.265625 -1.296875q0.828125 -0.453125 1.84375 -0.453125q1.5625 0 2.5625 1.015625q1.015625 1.015625 1.015625 2.578125q0 1.5625 -1.015625 2.59375q-1.015625 1.03125 -2.546875 1.03125q-0.953125 0 -1.8125 -0.421875q-0.859375 -0.4375 -1.3125 -1.265625q-0.453125 -0.828125 -0.453125 -2.015625zm1.875 0.09375q0 1.03125 0.484375 1.578125q0.5 0.546875 1.203125 0.546875q0.71875 0 1.203125 -0.546875q0.484375 -0.546875 0.484375 -1.59375q0 -1.015625 -0.484375 -1.5625q-0.484375 -0.546875 -1.203125 -0.546875q-0.703125 0 -1.203125 0.546875q-0.484375 0.546875 -0.484375 1.578125zm6.6882324 3.453125l0 -9.546875l1.828125 0l0 9.546875l-1.828125 0zm3.7029877 0l0 -9.546875l1.828125 0l0 9.546875l-1.828125 0zm3.2811127 -3.546875q0 -0.921875 0.453125 -1.765625q0.453125 -0.859375 1.265625 -1.296875q0.828125 -0.453125 1.84375 -0.453125q1.5625 0 2.5625 1.015625q1.015625 1.015625 1.015625 2.578125q0 1.5625 -1.015625 2.59375q-1.015625 1.03125 -2.546875 1.03125q-0.953125 0 -1.8125 -0.421875q-0.859375 -0.4375 -1.3125 -1.265625q-0.453125 -0.828125 -0.453125 -2.015625zm1.875 0.09375q0 1.03125 0.484375 1.578125q0.5 0.546875 1.203125 0.546875q0.71875 0 1.203125 -0.546875q0.484375 -0.546875 0.484375 -1.59375q0 -1.015625 -0.484375 -1.5625q-0.484375 -0.546875 -1.203125 -0.546875q-0.703125 0 -1.203125 0.546875q-0.484375 0.546875 -0.484375 1.578125zm7.9851074 3.453125l-2.1875 -6.90625l1.765625 0l1.296875 4.53125l1.203125 -4.53125l1.75 0l1.15625 4.53125l1.328125 -4.53125l1.796875 0l-2.21875 6.90625l-1.75 0l-1.203125 -4.4375l-1.171875 4.4375l-1.765625 0zm13.070175 -2.203125l1.828125 0.3125q-0.34375 1.0 -1.109375 1.53125q-0.765625 0.515625 -1.890625 0.515625q-1.8125 0 -2.671875 -1.171875q-0.6875 -0.953125 -0.6875 -2.390625q0 -1.71875 0.890625 -2.6875q0.90625 -0.96875 2.28125 -0.96875q1.546875 0 2.4375 1.015625q0.890625 1.015625 0.84375 3.125l-4.578125 0q0.015625 0.8125 0.4375 1.265625q0.421875 0.453125 1.0625 0.453125q0.421875 0 0.71875 -0.234375q0.296875 -0.234375 0.4375 -0.765625zm0.109375 -1.84375q-0.015625 -0.796875 -0.40625 -1.203125q-0.390625 -0.421875 -0.953125 -0.421875q-0.59375 0 -0.984375 0.4375q-0.390625 0.4375 -0.390625 1.1875l2.734375 0zm5.0531006 4.046875l-1.828125 0l0 -6.90625l1.703125 0l0 0.984375q0.4375 -0.703125 0.78125 -0.921875q0.34375 -0.21875 0.796875 -0.21875q0.625 0 1.203125 0.34375l-0.5625 1.59375q-0.46875 -0.296875 -0.859375 -0.296875q-0.390625 0 -0.65625 0.21875q-0.265625 0.203125 -0.421875 0.765625q-0.15625 0.546875 -0.15625 2.296875l0 2.140625z" fill-rule="nonzero"/></g></svg>